<?xml version="1.0" encoding="utf-8"?>
<!-- Generator: Adobe Illustrator 27.5.0, SVG Export Plug-In . SVG Version: 6.00 Build 0)  -->
<svg version="1.1" id="Layer_1" xmlns="http://www.w3.org/2000/svg" xmlns:xlink="http://www.w3.org/1999/xlink" x="0px" y="0px"
	 viewBox="0 0 633.049 400" style="enable-background:new 0 0 633.049 400;" xml:space="preserve">
<g>
	<rect x="0" style="fill:#FFFFFF;" width="633.049" height="400"/>
</g>
<g>
	<g>
		<path style="fill:#E8E1EF;" d="M114.76,78.945c0,4.87-0.74,9.57-2.13,13.98c-2.12,6.74-5.72,12.82-10.43,17.85
			c-0.1,0.12-0.2,0.23-0.31,0.34c-0.14,0.15-0.29,0.3-0.43,0.44c-8.46,8.64-20.26,14.01-33.32,14.01c-2.02,0-4.03-0.13-5.98-0.37
			c-0.02-0.01-0.03-0.01-0.05-0.01c-4.8-0.63-9.38-1.98-13.61-3.95c-0.35-0.16-0.7-0.33-1.05-0.5c-6.89-3.41-12.81-8.49-17.24-14.7
			c-0.38-0.54-0.76-1.08-1.12-1.64c-0.9-1.36-1.72-2.77-2.46-4.22c-3.27-6.37-5.11-13.58-5.11-21.23
			c0-25.75,20.87-46.62,46.62-46.62S114.76,53.195,114.76,78.945z"/>
	</g>
	<g>
		<g>
			<path style="fill:#68B6D8;" d="M102.2,110.775c-0.1,0.12-0.2,0.23-0.31,0.34c-0.14,0.15-0.29,0.3-0.43,0.44
				c-8.46,8.64-20.26,14.01-33.32,14.01c-2.02,0-4.03-0.13-5.98-0.37c-0.02-0.01-0.03-0.01-0.05-0.01
				c-4.8-0.63-9.38-1.98-13.61-3.95c0.4-16.89,0.23-31.67,0.23-31.95c0.16-0.35,7.98-2.36,18.39-2.7
				C83.5,86.065,97.34,95.305,102.2,110.775z"/>
		</g>
	</g>
	<g>
		<g>
			<path style="fill:#68B6D8;" d="M62.16,125.195c-0.02-0.01-0.03-0.01-0.05-0.01c-4.8-0.63-9.38-1.98-13.61-3.95
				c-0.35-0.16-0.7-0.33-1.05-0.5c-6.89-3.41-12.81-8.49-17.24-14.7c8.98-12.31,16.32-15.9,18.52-16.75
				c0.45-0.18,0.68-0.24,0.68-0.24L62.16,125.195z"/>
		</g>
	</g>
	<g>
		<path d="M69.207,59.451c0,0,10.576,0.771,11.43-9.369c0.909-10.796-9.069-12.082-13.426-7.818s-3.682,8.73-3.682,8.73
			s-2.894-2.743-6.206,0.454c-2.431,2.346-1.306,6.31-1.306,6.31s-5.456-0.347-5.066,4.435c0.39,4.782,3.74,7.288,3.74,7.288
			L69.207,59.451z"/>
	</g>
	<g>
		<g>
			<path style="fill:#F48462;" d="M59.058,77.906l0.819,11.279c0,0,2.27,3.095,8.907,3.152c4.944,0.043,6.59-1.194,6.59-1.194
				l-1.1-5.663l-1.08-5.522l-12.105-1.756L59.058,77.906z"/>
		</g>
	</g>
	<g>
		<g>
			<path d="M61.089,78.203c0.051,0.306,0.194,0.661,0.407,1.064c2.933,5.451,9.921,6.165,12.778,6.213l-1.08-5.522L61.089,78.203z"
				/>
		</g>
	</g>
	<g>
		<g>
			<path style="fill:#F48462;" d="M73.842,54.067c0,0,6.947,13.712,5.184,21.738s-9.032,7.194-13.426,5.912
				c-4.394-1.282-6.543-3.809-6.543-3.809s-3.945,1.594-6.849-1.994c-2.904-3.587-1.493-7.978,0.748-9.093
				c2.241-1.115,5.067,0.387,5.067,0.387l-2.374-3.965C55.649,63.244,63.471,41.961,73.842,54.067z"/>
		</g>
	</g>
	<g>
		<path d="M58.015,73.379c-0.089,0-0.18-0.024-0.261-0.074l-4.397-2.702c-0.235-0.145-0.309-0.452-0.164-0.688
			c0.143-0.236,0.453-0.31,0.688-0.164l4.396,2.702c0.235,0.145,0.309,0.452,0.164,0.688C58.347,73.295,58.183,73.379,58.015,73.379
			z"/>
	</g>
	<g>
		<path d="M54.363,73.677c-0.185,0-0.362-0.103-0.449-0.28c-0.122-0.248-0.02-0.547,0.229-0.669l2.3-1.129
			c0.249-0.121,0.547-0.02,0.669,0.229c0.122,0.248,0.02,0.547-0.229,0.669l-2.3,1.129C54.512,73.661,54.437,73.677,54.363,73.677z"
			/>
	</g>
	<g>
		<path d="M75.695,59.428c-0.1,0-0.201-0.03-0.289-0.092c-1.231-0.876-2.402-0.104-2.45-0.071c-0.229,0.154-0.539,0.095-0.694-0.131
			c-0.155-0.227-0.099-0.536,0.127-0.692c0.071-0.05,1.785-1.208,3.596,0.079c0.225,0.16,0.278,0.472,0.118,0.697
			C76.006,59.355,75.852,59.428,75.695,59.428z"/>
	</g>
	<g>
		<path d="M73.865,72.2c-0.036,0-0.072-0.004-0.108-0.012c-0.27-0.06-0.44-0.326-0.381-0.596c0.916-4.153-1.448-6.966-1.472-6.994
			c-0.18-0.209-0.157-0.525,0.052-0.705c0.209-0.18,0.523-0.158,0.704,0.05c0.111,0.129,2.719,3.204,1.692,7.863
			C74.301,72.041,74.094,72.2,73.865,72.2z"/>
	</g>
	<g>
		<path d="M75.537,66.07c-0.272,0-0.495-0.218-0.5-0.491l-0.047-2.688c-0.005-0.276,0.215-0.504,0.491-0.509
			c0.258,0.004,0.504,0.215,0.509,0.491l0.047,2.688c0.005,0.276-0.215,0.504-0.491,0.509C75.543,66.07,75.54,66.07,75.537,66.07z"
			/>
	</g>
	<g>
		<path d="M68.133,66.59c-0.272,0-0.495-0.218-0.5-0.491l-0.047-2.688c-0.005-0.276,0.215-0.504,0.491-0.509
			c0.272-0.011,0.504,0.215,0.509,0.491l0.047,2.688c0.005,0.276-0.215,0.504-0.491,0.509C68.139,66.59,68.136,66.59,68.133,66.59z"
			/>
	</g>
	<g>
		<path d="M75.261,57.167c0,0-1.389-2.179-4.204-1.993c-2.815,0.185-4.314,2.286-4.314,2.286s1.578,4.648-2.065,7.443
			c-3.643,2.795-6.655,2.306-6.655,2.306l-2.847-0.787l-2.33-3.907l7.4-9.235l9.993-6.239l5.644,4.423L75.261,57.167z"/>
	</g>
	<g>
		<path d="M71.568,75.026c-0.942,0-2.727-0.267-3.764-2.116c-0.135-0.241-0.049-0.546,0.191-0.681
			c0.241-0.135,0.545-0.05,0.681,0.191c1.077,1.92,3.257,1.591,3.348,1.576c0.27-0.045,0.529,0.14,0.574,0.412
			c0.046,0.271-0.137,0.528-0.409,0.575C72.157,74.989,71.922,75.026,71.568,75.026z"/>
	</g>
	<g>
		<path style="fill:#FFFFFF;" d="M78.504,70.198c-0.04,0-0.08,0-0.12-0.001c-1.286-0.032-2.481-0.579-3.365-1.54
			c-0.88-0.956-1.346-2.209-1.313-3.528c0.069-2.727,2.298-4.883,4.926-4.828c2.648,0.066,4.747,2.34,4.679,5.068
			c-0.033,1.318-0.562,2.546-1.488,3.458C80.92,69.714,79.746,70.198,78.504,70.198z M78.514,61.3c-2.055,0-3.755,1.709-3.809,3.854
			c-0.027,1.058,0.346,2.061,1.049,2.825c0.699,0.76,1.642,1.192,2.654,1.217c1.032,0.034,1.976-0.359,2.712-1.083
			c0.741-0.728,1.163-1.712,1.19-2.77c0.055-2.177-1.607-3.991-3.704-4.043C78.576,61.3,78.545,61.3,78.514,61.3z"/>
	</g>
	<g>
		<path style="fill:#FFFFFF;" d="M67.094,71.014c-0.042,0-0.083-0.001-0.126-0.002c-2.728-0.068-4.892-2.344-4.824-5.072
			c0.069-2.728,2.327-4.889,5.072-4.824c2.728,0.068,4.892,2.344,4.824,5.072C71.973,68.874,69.766,71.014,67.094,71.014z
			 M67.091,62.115c-2.132,0-3.893,1.707-3.946,3.851c-0.055,2.177,1.672,3.992,3.849,4.046c2.179,0.065,3.992-1.672,4.046-3.849
			c0.055-2.177-1.672-3.992-3.849-4.046C67.158,62.116,67.124,62.115,67.091,62.115z"/>
	</g>
	<g>
		<path style="fill:#FFFFFF;" d="M71.075,66.148c-0.263,0-0.484-0.205-0.498-0.472c-0.016-0.276,0.195-0.512,0.471-0.527
			l3.484-0.197c0.274-0.02,0.512,0.195,0.527,0.471c0.016,0.276-0.195,0.512-0.471,0.527l-3.484,0.197
			C71.094,66.148,71.085,66.148,71.075,66.148z"/>
	</g>
	<g>
		<path style="fill:#FFFFFF;" d="M62.627,67.108c-0.08,0-0.163-0.02-0.238-0.061c-0.046-0.026-4.666-2.491-6.858-0.274
			c-0.194,0.197-0.51,0.198-0.707,0.004c-0.196-0.194-0.198-0.511-0.004-0.707c2.721-2.75,7.832-0.018,8.046,0.099
			c0.243,0.132,0.332,0.435,0.201,0.678C62.977,67.013,62.805,67.108,62.627,67.108z"/>
	</g>
	<g>
		<path style="fill:#FFFFFF;" d="M69.216,93.072c-2.889,0-6.491-0.798-10.439-3.483c-0.229-0.155-0.288-0.466-0.132-0.695
			c0.156-0.228,0.468-0.287,0.695-0.132c9.117,6.203,15.984,1.937,16.272,1.753c0.233-0.149,0.542-0.082,0.691,0.15
			c0.149,0.232,0.083,0.541-0.148,0.69C76.109,91.383,73.417,93.072,69.216,93.072z"/>
	</g>
	<g>
		<path d="M64.794,60.752c-0.095,0-0.19-0.027-0.275-0.083c-0.231-0.152-0.294-0.463-0.141-0.693c1.403-2.119,3.5-1.9,4.413-1.49
			c0.252,0.114,0.364,0.41,0.251,0.662c-0.114,0.25-0.41,0.362-0.659,0.251c-0.077-0.034-1.894-0.799-3.17,1.129
			C65.115,60.674,64.956,60.752,64.794,60.752z"/>
	</g>
</g>
<g>
	<g>
		<path style="fill:#E8E1EF;" d="M487.672,320.862c0,6.26-1.23,12.23-3.47,17.68c-0.2,0.5-0.42,0.99-0.65,1.48
			c-5.62,12.47-16.57,22.03-29.96,25.75c-0.95,0.27-1.92,0.51-2.9,0.71c-0.33,0.07-0.65,0.13-0.98,0.19
			c-2.81,0.54-5.71,0.81-8.66,0.81c-1.65,0-3.28-0.08-4.89-0.25c-1.05-0.11-2.09-0.26-3.12-0.44c-1.36-0.24-2.69-0.53-4.01-0.88
			c-1.78-0.47-3.53-1.05-5.22-1.73c-3.91-1.55-7.56-3.62-10.87-6.12c-5.27-3.98-9.66-9.06-12.84-14.89
			c-3.62-6.63-5.68-14.23-5.68-22.31c0-25.75,20.88-46.62,46.63-46.62S487.672,295.112,487.672,320.862z"/>
	</g>
	<g>
		<g>
			<path style="fill:#A37B90;" d="M453.592,365.77c-3.99,1.12-8.2,1.71-12.54,1.71c-2.73,0-5.41-0.23-8.01-0.69
				c-1.36-0.24-2.69-0.53-4.01-0.88c-1.78-0.47-3.53-1.05-5.22-1.73l3.31-33.33l18.05-4.26l7.18,2.13L453.592,365.77z"/>
		</g>
	</g>
	<g>
		<g>
			<path d="M447.472,320.772c-4.73-0.88-18.27-22.66-18.27-22.66s-6.74-8.31-4.92-9.41c1.82-1.09,3.55,0.58,3.55,0.58
				s6.03-0.95,11.55-1.17c0.7-0.03,1.39-0.05,2.06-0.05c2.03-0.01,3.87,0.12,5.14,0.48c5.01,1.42,8.37,9.63,8.37,9.63
				s2.51-0.23,3.57,3.19C459.592,304.792,452.192,321.652,447.472,320.772z"/>
		</g>
	</g>
	<g>
		<g>
			<g>
				<g>
					<g>
						<path style="fill:#F48462;" d="M447.415,318.056l0.232,11.47c0,0-2.002,3.339-8.701,4.02c-4.99,0.507-6.77-0.587-6.77-0.587
							l0.579-5.823l0.573-5.679l12.063-2.91L447.415,318.056z"/>
					</g>
				</g>
			</g>
		</g>
	</g>
	<g>
		<g>
			<g>
				<g>
					<g>
						<path d="M445.391,318.547c-0.023,0.314-0.134,0.686-0.311,1.113c-2.451,5.782-9.443,7.159-12.325,7.476l0.573-5.679
							L445.391,318.547z"/>
					</g>
				</g>
			</g>
		</g>
	</g>
	<g>
		<g>
			<g>
				<g>
					<g>
						<path style="fill:#F48462;" d="M430.242,295.363c0,0-5.729,14.503-3.195,22.445c2.535,7.942,9.799,6.418,14.117,4.711
							c4.318-1.707,6.252-4.462,6.252-4.462s4.135,1.239,6.731-2.657c2.597-3.896,0.759-8.199-1.61-9.115
							c-2.368-0.916-5.082,0.867-5.082,0.867l2.026-4.228C449.482,302.925,439.581,282.161,430.242,295.363z"/>
					</g>
				</g>
			</g>
		</g>
	</g>
	<g>
		<g>
			<path d="M430.242,295.363c0,0,4.464-1.796,6.369-0.222c1.905,1.574,4.15,14.87,10.845,12.012
				c6.695-2.858,3.231-11.377,3.231-11.377S433.848,281.357,430.242,295.363z"/>
		</g>
	</g>
	<g>
		<g>
			<path style="fill:#40507F;" d="M432.81,326.599c0,0-1.478,19.611-3.777,39.311c-12.47-3.31-22.88-11.66-28.93-22.74
				c3.7-3.88,9.62-10.37,14.73-12.44C423.752,327.11,432.81,326.599,432.81,326.599z"/>
		</g>
	</g>
	<g>
		<path style="fill:#92B4EA;" d="M437.051,334.052c-2.44,0-4.228-0.381-4.403-0.42c-0.27-0.06-0.439-0.326-0.38-0.596
			c0.059-0.27,0.323-0.438,0.596-0.381c0.102,0.021,10.109,2.141,15.347-4.005c0.182-0.21,0.496-0.234,0.705-0.057
			c0.21,0.18,0.235,0.495,0.057,0.705C445.621,333.23,440.633,334.052,437.051,334.052z"/>
	</g>
	<g>
		<g>
			<path style="fill:#40507F;" d="M483.552,340.022c-5.62,12.47-16.57,22.03-29.96,25.75c-0.95,0.27-1.92,0.51-2.9,0.71
				c-0.33,0.07-0.65,0.13-0.98,0.19c-1.35-15.25-2.13-41.91-2.13-41.91S468.352,325.072,483.552,340.022z"/>
		</g>
	</g>
	<g>
		<path d="M447.97,313.558c-0.125,0-0.25-0.047-0.348-0.141c-0.198-0.191-0.204-0.508-0.012-0.707l3.613-3.742
			c0.191-0.198,0.508-0.203,0.707-0.012c0.198,0.191,0.204,0.508,0.012,0.707l-3.613,3.742
			C448.231,313.507,448.101,313.558,447.97,313.558z"/>
	</g>
	<g>
		<path d="M452.857,312.644c-0.041,0-0.084-0.005-0.126-0.017l-3.12-0.815c-0.268-0.069-0.428-0.343-0.357-0.609
			c0.069-0.267,0.341-0.434,0.609-0.357l3.12,0.814c0.268,0.069,0.428,0.343,0.357,0.609
			C453.282,312.495,453.08,312.644,452.857,312.644z"/>
	</g>
	<g>
		<path d="M429.296,301.886c-0.107,0-0.213-0.034-0.303-0.104c-0.216-0.166-0.261-0.471-0.099-0.689
			c0.039-0.053,0.976-1.277,3.353-0.94c0.273,0.039,0.463,0.293,0.424,0.566c-0.04,0.273-0.302,0.454-0.566,0.424
			c-1.75-0.252-2.387,0.519-2.412,0.552C429.593,301.819,429.444,301.886,429.296,301.886z"/>
	</g>
	<g>
		<path d="M440.101,302.022c-0.113,0-0.227-0.038-0.32-0.116c-1.25-1.044-2.674-0.678-2.734-0.661
			c-0.264,0.071-0.54-0.086-0.612-0.352c-0.072-0.266,0.083-0.539,0.348-0.612c0.08-0.022,1.98-0.526,3.64,0.857
			c0.212,0.177,0.24,0.492,0.064,0.704C440.386,301.96,440.243,302.022,440.101,302.022z"/>
	</g>
	<g>
		<path d="M429.772,307.602c-0.316-0.025-0.521-0.266-0.499-0.54l0.217-2.67c0.021-0.275,0.271-0.479,0.538-0.458
			c0.275,0.022,0.481,0.264,0.458,0.538l-0.217,2.67C430.248,307.403,430.029,307.602,429.772,307.602z"/>
	</g>
	<g>
		<path d="M437.67,307.928c-0.316-0.024-0.522-0.266-0.499-0.54l0.217-2.671c0.022-0.275,0.266-0.474,0.538-0.458
			c0.275,0.023,0.48,0.264,0.458,0.538l-0.217,2.671C438.147,307.729,437.928,307.928,437.67,307.928z"/>
	</g>
	<g>
		<path d="M431.689,313.976c-0.191,0-0.373-0.11-0.456-0.296c-1.676-3.752,0.836-6.775,0.944-6.901
			c0.178-0.21,0.493-0.236,0.703-0.059c0.211,0.179,0.237,0.494,0.059,0.705c-0.091,0.107-2.209,2.681-0.795,5.847
			c0.113,0.252,0,0.548-0.252,0.66C431.827,313.962,431.758,313.976,431.689,313.976z"/>
	</g>
	<g>
		<path d="M434.814,316.376c-0.276,0-0.5-0.224-0.5-0.5c0-0.275,0.223-0.499,0.498-0.5c0.07-0.001,1.731-0.03,2.329-1.456
			c0.106-0.254,0.397-0.375,0.654-0.268c0.255,0.106,0.374,0.399,0.268,0.654C437.207,316.353,434.912,316.376,434.814,316.376z"/>
	</g>
</g>
<g>
	<g>
		<path style="fill:#E8E1EF;" d="M114.76,200.431c0,4.87-0.74,9.57-2.13,13.98c-1.83,5.82-4.77,11.15-8.58,15.73
			c-0.59,0.73-1.21,1.43-1.85,2.12c-0.1,0.12-0.2,0.23-0.31,0.34l-0.12,0.12c-0.1,0.11-0.21,0.22-0.31,0.32
			c-1.34,1.36-2.76,2.65-4.26,3.85c-0.37,0.29-0.74,0.58-1.12,0.86c-0.38,0.29-0.77,0.57-1.16,0.84c-0.4,0.28-0.79,0.55-1.19,0.81
			c-0.4,0.26-0.81,0.52-1.22,0.77c-0.16,0.1-0.33,0.2-0.49,0.3c-0.21,0.13-0.43,0.26-0.65,0.38c-0.09,0.05-0.17,0.1-0.26,0.15
			c-0.28,0.16-0.56,0.31-0.84,0.46c-0.38,0.21-0.77,0.42-1.16,0.61c-0.28,0.14-0.56,0.28-0.85,0.42c-0.17,0.08-0.34,0.17-0.52,0.24
			c-0.27,0.13-0.54,0.26-0.82,0.37c-0.39,0.18-0.78,0.35-1.18,0.51c-0.28,0.11-0.55,0.23-0.83,0.33c-0.32,0.12-0.63,0.24-0.95,0.35
			c-0.12,0.05-0.24,0.09-0.36,0.13c-0.4,0.14-0.8,0.28-1.21,0.41c-0.35,0.12-0.71,0.23-1.07,0.32c-0.29,0.1-0.58,0.18-0.87,0.26
			c-0.08,0.02-0.16,0.04-0.23,0.06c-0.44,0.12-0.88,0.23-1.32,0.33c-1.42,0.34-2.87,0.61-4.33,0.81c-0.52,0.07-1.05,0.14-1.58,0.19
			c-0.53,0.06-1.07,0.1-1.6,0.14c-1.08,0.07-2.16,0.11-3.25,0.11c-1.78,0-3.55-0.1-5.28-0.29c-0.24-0.02-0.47-0.05-0.7-0.08
			c-0.02-0.01-0.03-0.01-0.05-0.01c-2.21-0.29-4.37-0.73-6.47-1.32c-2.47-0.68-4.86-1.57-7.14-2.63c-0.35-0.16-0.7-0.33-1.05-0.5
			c-2.25-1.11-4.39-2.4-6.4-3.85c-2.02-1.44-3.92-3.04-5.68-4.79c-0.73-0.72-1.43-1.46-2.1-2.23c-1.1-1.22-2.11-2.5-3.06-3.83
			c-0.38-0.54-0.76-1.08-1.12-1.64c-0.9-1.36-1.72-2.77-2.46-4.22c-3.27-6.37-5.11-13.58-5.11-21.23
			c0-25.75,20.87-46.62,46.62-46.62S114.76,174.681,114.76,200.431z"/>
	</g>
	<g>
		<g>
			<path d="M58.079,181.117c0,0-15.919,6.088-16.731,24.106c-1.174,26.042,30.036,20.005,30.036,20.005s17.677,1.834,22.566-11.197
				c4.89-13.031-10.827-20.897-10.827-20.897S64.067,176.352,58.079,181.117z"/>
		</g>
	</g>
	<g>
		<path style="fill:#68B6D8;" d="M104.05,230.141c-4.03-10.81-15.5-27.25-34.62-26.55c-1.3,0.05-2.56,0.17-3.77,0.35
			c-0.04,0.01-0.08,0.02-0.12,0.02c-16.91,2.65-28.1,17.78-32.27,27.39c0.67,0.77,1.37,1.51,2.1,2.23c1.76,1.75,3.66,3.35,5.68,4.79
			c2.01,1.45,4.15,2.74,6.4,3.85c0.35,0.17,0.7,0.34,1.05,0.5c2.28,1.06,4.67,1.95,7.14,2.63c2.1,0.59,4.26,1.03,6.47,1.32
			c0.02,0,0.03,0,0.05,0.01c0.23,0.03,0.46,0.06,0.69,0.08c1.74,0.19,3.51,0.29,5.29,0.29c1.09,0,2.17-0.04,3.25-0.11
			c0.53-0.04,1.07-0.08,1.6-0.14c0.53-0.05,1.06-0.12,1.58-0.19c1.46-0.2,2.91-0.47,4.33-0.81c0.44-0.1,0.88-0.21,1.32-0.33
			c0.07-0.02,0.15-0.04,0.23-0.06c0.29-0.08,0.58-0.16,0.87-0.26c0.36-0.09,0.72-0.2,1.07-0.32c0.41-0.13,0.81-0.27,1.21-0.41
			c0.12-0.04,0.24-0.08,0.36-0.13c0.32-0.11,0.63-0.23,0.95-0.35c0.28-0.1,0.55-0.22,0.83-0.33c0.4-0.16,0.79-0.33,1.18-0.51
			c0.28-0.11,0.55-0.24,0.82-0.37c0.18-0.07,0.35-0.16,0.52-0.24c0.29-0.14,0.57-0.28,0.85-0.42c0.39-0.19,0.78-0.4,1.16-0.61
			c0.28-0.15,0.56-0.3,0.84-0.46c0.09-0.05,0.17-0.1,0.26-0.15c0.22-0.12,0.44-0.25,0.65-0.38c0.16-0.1,0.33-0.2,0.49-0.3
			c0.41-0.25,0.82-0.51,1.22-0.77c0.4-0.26,0.79-0.53,1.19-0.81c0.39-0.27,0.78-0.55,1.16-0.84c0.38-0.28,0.75-0.57,1.12-0.86
			c1.5-1.2,2.92-2.49,4.26-3.85L104.05,230.141z"/>
	</g>
	<g>
		<path style="fill:#68B6D8;" d="M92.019,240.469c-6.98,4.18-15.15,6.58-23.88,6.58c-1.78,0-3.55-0.1-5.28-0.29
			c-0.24-0.02-0.47-0.05-0.7-0.08c-0.02-0.01-0.03-0.01-0.05-0.01c-2.21-0.29-4.37-0.73-6.47-1.32c-2.47-0.68-4.86-1.57-7.14-2.63
			c-0.35-0.16-0.7-0.33-1.05-0.5c-2.25-1.11-4.39-2.4-6.4-3.85c-0.09-6.87-0.14-12.29-0.14-12.29l17.76-13.18l8.72-6.47
			c0.11,0,0.22,0,0.33,0.01c4.8,0.1,8.85,1.08,12.04,2.26c0.51,0.2,1,0.39,1.47,0.59c4.43,1.88,6.83,3.99,6.83,3.99
			S90.139,227.059,92.019,240.469z"/>
	</g>
	<g>
		<g>
			<path style="fill:#F48462;" d="M65.255,197.138l0.368,9.848c0,0,1.845,3.025,8.003,3.294c4.588,0.201,6.217-1.103,6.217-1.103
				l-0.713-4.513l-0.822-5.16L67.13,197.48L65.255,197.138z"/>
		</g>
	</g>
	<g>
		<g>
			<path d="M65.255,196.637c0.037,0.286,0.159,0.62,0.343,1.001c2.544,5.155,10.882,6.888,13.532,7.026l-0.822-5.16L65.255,196.637z
				"/>
		</g>
	</g>
	<g>
		<g>
			<path style="fill:#F48462;" d="M79.754,175.496c0,0,5.999,12.953,4.101,20.344c-1.898,7.392-8.617,6.382-12.653,5.049
				c-4.036-1.333-5.949-3.748-5.949-3.748s-3.713,1.35-6.292-2.074c-2.578-3.424-1.125-7.453,0.991-8.415
				c2.116-0.962,4.69,0.525,4.69,0.525l-2.074-3.757C62.569,183.419,70.524,163.922,79.754,175.496z"/>
		</g>
	</g>
	<g>
		<path d="M81.691,180.878c-0.024,0-0.049-0.002-0.074-0.005l-2.561-0.38c-0.273-0.041-0.462-0.295-0.421-0.568
			c0.041-0.273,0.294-0.46,0.568-0.421l2.561,0.38c0.273,0.04,0.462,0.295,0.421,0.568C82.148,180.7,81.935,180.878,81.691,180.878z
			"/>
	</g>
	<g>
		<path d="M72.14,181.936c-0.195,0-0.38-0.115-0.461-0.306c-0.107-0.255,0.013-0.548,0.267-0.655l2.972-1.249
			c0.255-0.104,0.548,0.013,0.655,0.267c0.107,0.255-0.013,0.548-0.267,0.655l-2.972,1.249
			C72.27,181.924,72.205,181.936,72.14,181.936z"/>
	</g>
	<g>
		<path d="M79.675,191.5c-0.017,0-0.034-0.001-0.051-0.002c-0.275-0.028-0.475-0.273-0.447-0.548
			c0.411-4.043-1.265-6.079-1.282-6.099c-0.178-0.211-0.153-0.525,0.057-0.704c0.209-0.179,0.522-0.155,0.703,0.053
			c0.08,0.094,1.974,2.349,1.518,6.85C80.146,191.308,79.929,191.5,79.675,191.5z"/>
	</g>
	<g>
		<path d="M75.591,195.878c-0.197,0-0.403-0.027-0.616-0.087c-1.654-0.473-1.84-2.369-1.847-2.45
			c-0.014-0.162,0.051-0.32,0.175-0.425c0.124-0.105,0.292-0.143,0.449-0.102l3.883,1.006c0.162,0.042,0.292,0.162,0.347,0.32
			c0.055,0.158,0.027,0.333-0.074,0.466C77.862,194.665,76.924,195.878,75.591,195.878z M74.338,193.999
			c0.161,0.34,0.438,0.695,0.911,0.831c0.473,0.135,0.916-0.044,1.251-0.271L74.338,193.999z"/>
	</g>
	<g>
		<path d="M64.661,192.579c-0.069,0-0.139-0.014-0.206-0.045l-5.273-2.397c-0.252-0.114-0.362-0.411-0.248-0.662
			c0.113-0.251,0.409-0.363,0.662-0.248l5.274,2.397c0.251,0.114,0.362,0.411,0.248,0.662
			C65.033,192.47,64.851,192.579,64.661,192.579z"/>
	</g>
	<g>
		<path d="M59.963,193.797c-0.129,0-0.258-0.05-0.356-0.148c-0.194-0.196-0.192-0.513,0.004-0.707l2.325-2.297
			c0.197-0.195,0.513-0.192,0.707,0.004c0.194,0.196,0.192,0.513-0.004,0.707l-2.325,2.297
			C60.217,193.749,60.09,193.797,59.963,193.797z"/>
	</g>
	<g>
		<path d="M72.14,176.898c0,0,3.003-0.429,6.136,1.354c3.133,1.783,3.777,3.52,3.777,3.52s1.938-4.604-2.31-8.666
			c-4.248-4.062-12.397-5.188-17.095-0.383c-4.698,4.806-4.41,9.048-4.41,9.048l6.406,5.404
			C64.643,187.176,74.537,185.383,72.14,176.898z"/>
	</g>
	<g>
		<path d="M61.505,174.016c0,0-6.044-11.479-12.171-6.628c-6.126,4.851,0.696,14.641,6.781,15.355
			C62.2,183.457,61.505,174.016,61.505,174.016z"/>
	</g>
	<g>
		<path style="fill:#68B6D8;" d="M62.859,246.759c-0.24-0.02-0.47-0.05-0.7-0.08c-0.02-0.01-0.03-0.01-0.05-0.01
			c-2.21-0.29-4.37-0.73-6.47-1.32l3.03-32.45l0.1-1.03l6.486-3.262l-1.168-2.833C64.086,205.774,70.969,232.819,62.859,246.759z"/>
	</g>
	<g>
		<g>
			<path style="fill:#F7B369;" d="M92.509,240.169c-0.16,0.1-0.33,0.2-0.49,0.3c-0.21,0.13-0.43,0.26-0.65,0.38
				c2.17-11.33-2.27-17.82-2.32-17.89c-0.16-0.23-0.12-0.56,0.1-0.73c0.23-0.17,0.54-0.12,0.7,0.11
				C90.049,222.619,94.389,228.919,92.509,240.169z"/>
		</g>
	</g>
	<g>
		<path style="fill:#F7B369;" d="M74.188,210.78c-5.678,0-8.892-3.411-8.934-3.457c-0.186-0.203-0.172-0.518,0.03-0.705
			c0.204-0.187,0.519-0.173,0.706,0.028c0.211,0.229,5.273,5.557,14.228,1.847c0.254-0.106,0.548,0.016,0.653,0.271
			c0.106,0.255-0.015,0.548-0.271,0.653C78.212,210.408,76.065,210.78,74.188,210.78z"/>
	</g>
	<g>
		<path style="fill:#E6F4FF;" d="M65.966,196.637c0,1.038-0.841,1.879-1.879,1.879c-1.038,0-1.879-0.841-1.879-1.879
			c0-1.038,0.841-1.879,1.879-1.879C65.124,194.758,65.966,195.6,65.966,196.637z"/>
	</g>
	<g>
		<path d="M73.626,187.326c-0.276,0-0.5-0.224-0.5-0.5v-2.3c0-0.131,0.052-0.257,0.144-0.351l1.018-1.033
			c0.194-0.197,0.51-0.198,0.707-0.005c0.197,0.194,0.199,0.51,0.005,0.707l-0.874,0.887v2.095
			C74.126,187.102,73.902,187.326,73.626,187.326z"/>
	</g>
	<g>
		<path d="M81.182,187.326c-0.276,0-0.5-0.224-0.5-0.5v-2.3c0-0.131,0.052-0.257,0.144-0.351l1.018-1.033
			c0.193-0.197,0.509-0.2,0.707-0.005c0.197,0.194,0.199,0.51,0.005,0.707l-0.874,0.887v2.095
			C81.682,187.102,81.458,187.326,81.182,187.326z"/>
	</g>
</g>
<g>
	<g>
		<path style="fill:#E8E1EF;" d="M363.508,79.098c0,8.9-2.5,17.22-6.82,24.3c-0.75,1.23-1.56,2.41-2.41,3.56
			c-0.63,0.84-1.28,1.65-1.97,2.44c-1.79,2.1-3.77,4.03-5.9,5.79c-0.7,0.57-1.42,1.13-2.16,1.66c-0.4,0.3-0.81,0.59-1.23,0.87
			c-0.72,0.48-1.45,0.95-2.2,1.39c-0.14,0.1-0.29,0.18-0.44,0.27c-0.15,0.09-0.31,0.18-0.47,0.27c-1.48,0.85-3.03,1.61-4.61,2.29
			c-3.33,1.44-6.87,2.49-10.55,3.11c-0.41,0.08-0.81,0.14-1.22,0.2c-1.04,0.15-2.09,0.26-3.15,0.34c-0.11,0.01-0.22,0.02-0.33,0.02
			c-0.73,0.05-1.48,0.08-2.23,0.09c-0.31,0.02-0.62,0.02-0.93,0.02c-3.76,0-7.43-0.45-10.93-1.29c-2.85-0.68-5.59-1.63-8.21-2.83
			c-2.08-0.92-4.08-2.01-5.99-3.23c-0.71-0.45-1.41-0.93-2.1-1.43c-0.81-0.58-1.6-1.19-2.37-1.84c-2.01-1.64-3.88-3.46-5.59-5.43
			c-0.38-0.44-0.75-0.88-1.11-1.33c-0.39-0.48-0.77-0.97-1.14-1.47c-0.16-0.21-0.31-0.41-0.46-0.62c-1.23-1.71-2.34-3.51-3.33-5.39
			c-0.4-0.74-0.77-1.5-1.12-2.26c-2.75-5.94-4.27-12.55-4.27-19.5c0-25.75,20.87-46.62,46.62-46.62S363.508,53.347,363.508,79.098z"
			/>
	</g>
	<g>
		<path style="fill:#92B4EA;" d="M344.248,116.848c-0.4,0.3-0.81,0.59-1.23,0.87c-0.86,0.58-1.74,1.14-2.64,1.66
			c-5.08,2.97-10.77,5-16.85,5.87c-0.29,0.04-0.58,0.08-0.88,0.11c-1.55,0.2-3.13,0.31-4.74,0.34h-0.09
			c-0.31,0.02-0.62,0.02-0.93,0.02c-3.76,0-7.43-0.45-10.93-1.29c-5.11-1.23-9.9-3.3-14.2-6.06c-1.56-0.99-3.05-2.08-4.47-3.27
			c-2.01-1.64-3.88-3.46-5.59-5.43c-0.38-0.44-0.75-0.88-1.11-1.33c-0.59-7.99,6.93-15.69,8.27-17.26c4.31-5.1,16.43-7.94,28.33-7.6
			c0,0,16.21-0.06,22.96,7.15C343.118,93.798,344.108,105.098,344.248,116.848z"/>
	</g>
	<g>
		<path style="fill:#92B4EA;" d="M290.268,89.705l-0.61,27.235c-0.81-0.58-1.6-1.19-2.37-1.84c-2.01-1.64-3.88-3.46-5.59-5.43
			c-0.38-0.44-0.75-0.88-1.11-1.33c-0.39-0.48-0.77-0.97-1.14-1.47c-0.16-0.21-0.31-0.41-0.46-0.62c-1.23-1.71-2.34-3.51-3.33-5.39
			C281.612,95.15,290.268,89.705,290.268,89.705z"/>
	</g>
	<g>
		<path style="fill:#92B4EA;" d="M352.308,109.397c-1.79,2.1-3.77,4.03-5.9,5.79c-0.7,0.57-1.42,1.13-2.16,1.66
			c-0.4,0.3-0.81,0.59-1.23,0.87c-0.19,0.13-0.39,0.26-0.58,0.38c-0.24,0.16-0.48,0.32-0.72,0.46c-0.44,0.29-0.89,0.56-1.34,0.82
			c-1.63,0.96-3.33,1.81-5.08,2.56l-5.79-4.77l11.04-26.09L352.308,109.397z"/>
	</g>
	<g>
		<g>
			<g>
				<g>
					<path style="fill:#F48462;" d="M308.302,75.043l-0.759,9.354c0,0,0.637,2.837,6.757,3.837c4.559,0.746,7.047-2.006,7.047-2.006
						l-0.078-2.019l-0.209-5.252l-10.926-3.35L308.302,75.043z"/>
				</g>
			</g>
		</g>
	</g>
	<g>
		<g>
			<g>
				<g>
					<path d="M310.134,75.607c0.003,0.29,0.085,0.638,0.224,1.041c1.93,5.452,8.28,7.109,10.911,7.561l-0.209-5.252L310.134,75.607z
						"/>
				</g>
			</g>
		</g>
	</g>
	<g>
		<g>
			<g>
				<g>
					<path style="fill:#F48462;" d="M325.357,55.143c0,0,4.455,13.652,1.681,20.811c-2.774,7.159-9.367,5.352-13.24,3.541
						c-3.874-1.811-5.498-4.451-5.498-4.451s-3.87,0.908-6.039-2.819c-2.169-3.727-0.239-7.579,1.99-8.289
						c2.228-0.71,4.623,1.081,4.623,1.081l-1.626-4C307.248,61.018,317.51,42.485,325.357,55.143z"/>
				</g>
			</g>
		</g>
	</g>
	<g>
		<path d="M323.185,71.811c-0.065,0-0.132-0.013-0.196-0.04c-0.254-0.108-0.372-0.402-0.264-0.656
			c0.977-2.289-0.535-5.052-0.551-5.08c-0.134-0.241-0.048-0.545,0.193-0.68c0.239-0.134,0.545-0.049,0.68,0.192
			c0.072,0.13,1.768,3.214,0.598,5.96C323.564,71.697,323.379,71.811,323.185,71.811z"/>
	</g>
	<g>
		<path d="M307.725,71.081c-0.119,0-0.237-0.054-0.316-0.156l-3.166-4.136c-0.133-0.174-0.101-0.424,0.074-0.558
			c0.173-0.132,0.424-0.102,0.559,0.074l3.166,4.136c0.133,0.174,0.101,0.424-0.074,0.558
			C307.895,71.054,307.81,71.081,307.725,71.081z"/>
	</g>
	<g>
		<path d="M304.065,69.681c-0.212,0-0.388-0.166-0.397-0.379c-0.011-0.22,0.159-0.406,0.379-0.417l2.498-0.118
			c0.215-0.009,0.406,0.16,0.416,0.378c0.011,0.22-0.159,0.406-0.379,0.416l-2.498,0.118
			C304.078,69.681,304.071,69.681,304.065,69.681z"/>
	</g>
	<g>
		<path d="M317.759,66.314c-0.27,0-0.493-0.216-0.5-0.488l-0.059-2.471c-0.007-0.276,0.212-0.505,0.488-0.512
			c0.298,0.004,0.505,0.212,0.512,0.488l0.059,2.471c0.007,0.276-0.212,0.505-0.488,0.512
			C317.767,66.314,317.763,66.314,317.759,66.314z"/>
	</g>
	<g>
		<path d="M325.06,66.482c-0.267,0-0.488-0.21-0.5-0.479l-0.107-2.47c-0.012-0.276,0.202-0.509,0.479-0.521
			c0.274-0.029,0.509,0.202,0.521,0.478l0.107,2.47c0.012,0.276-0.202,0.509-0.479,0.521
			C325.074,66.482,325.066,66.482,325.06,66.482z"/>
	</g>
	<g>
		<path d="M316.552,61.678c-0.099,0-0.198-0.029-0.285-0.089c-0.227-0.158-0.283-0.469-0.126-0.696
			c1.147-1.651,3.321-0.896,3.414-0.864c0.259,0.093,0.394,0.378,0.302,0.638c-0.093,0.26-0.38,0.395-0.638,0.304
			c-0.063-0.022-1.551-0.528-2.256,0.491C316.865,61.603,316.71,61.678,316.552,61.678z"/>
	</g>
	<g>
		<path d="M326.091,61.666c-0.168,0-0.332-0.084-0.426-0.238c-0.111-0.178-0.499-0.658-0.96-0.751
			c-0.25-0.051-0.508,0.017-0.779,0.209c-0.226,0.158-0.537,0.106-0.697-0.121c-0.158-0.226-0.104-0.538,0.121-0.697
			c0.498-0.351,1.037-0.478,1.561-0.37c0.966,0.2,1.544,1.105,1.607,1.208c0.143,0.235,0.069,0.543-0.166,0.688
			C326.271,61.642,326.181,61.666,326.091,61.666z"/>
	</g>
	<g>
		<path d="M325.356,55.145l-0.844-1.233c0,0-1.037,0.711-3.344,1.198c-3.543,0.768-7.705,0.552-7.705,0.552s0.699,1.015,0.538,4.667
			c-0.16,3.664-3.961,5.704-3.961,5.704c-1.336-0.941-2.463-1.475-3.41-1.758c-0.41-0.116-0.774-0.19-1.113-0.231
			c-2.193-0.216-3.009,1.138-3.009,1.138s-5.045-8.041,0.792-13.819c4.093-4.034,9.573-3.776,12.477-3.255
			c0.987,0.18,1.672,0.386,1.923,0.464c0.068,0.019,0.103,0.029,0.103,0.029s8.739-2.072,10.193-0.777
			C329.448,49.109,326.405,55.199,325.356,55.145z"/>
	</g>
	<g>
		<path d="M320.301,75.556c-0.342,0-0.708-0.059-1.086-0.214c-0.502-0.206-0.86-0.549-1.036-0.993
			c-0.31-0.779,0.036-1.582,0.077-1.671c0.056-0.123,0.16-0.219,0.288-0.264c0.125-0.044,0.267-0.037,0.39,0.023l3.263,1.622
			c0.155,0.077,0.259,0.229,0.275,0.401c0.016,0.172-0.058,0.341-0.196,0.445C322.231,74.938,321.4,75.556,320.301,75.556z
			 M319.053,73.613c-0.004,0.124,0.01,0.254,0.057,0.371c0.076,0.188,0.234,0.33,0.484,0.432c0.445,0.183,0.876,0.162,1.227,0.075
			L319.053,73.613z"/>
	</g>
	<g>
		<path style="fill:#A2C5F9;" d="M322.648,125.357c-1.55,0.2-3.13,0.31-4.74,0.34l-3.47-37.01l3.41,0.89L322.648,125.357z"/>
	</g>
	<g>
		<path style="fill:#E6F4FF;" d="M321.493,83.913c0,0,3.973,11.044,2.813,10.88c-1.159-0.164-8.298-5.845-8.298-5.845
			s-4.674,6.428-6.304,6.547c-1.63,0.119-2.163-11.504-2.163-11.504s1.233,3.287,7.318,3.844S321.493,83.913,321.493,83.913z"/>
	</g>
	<g>
		<g>
			<path style="fill:#E6F4FF;" d="M340.818,119.107c-0.14,0.1-0.29,0.18-0.44,0.27c-0.15,0.09-0.31,0.18-0.47,0.27l-3.99-18.69
				c-0.05-0.27,0.12-0.53,0.39-0.59c0.27-0.06,0.53,0.11,0.59,0.38L340.818,119.107z"/>
		</g>
	</g>
</g>
<g>
	<g>
		<path style="fill:#E8E1EF;" d="M239.14,200.806c0,6.7-1.42,13.08-3.96,18.84c-0.56,1.25-1.16,2.47-1.82,3.66
			c-0.33,0.61-0.68,1.21-1.04,1.8c-0.64,1.05-1.32,2.06-2.03,3.04c-0.12,0.16-0.23,0.32-0.34,0.47c-0.01,0.02-0.02,0.03-0.04,0.05
			c-2.28,3.05-4.93,5.81-7.87,8.23c-1.09,0.89-2.22,1.74-3.39,2.53c-0.86,0.58-1.74,1.14-2.64,1.66c-0.62,0.36-1.25,0.71-1.89,1.05
			c-4.59,2.4-9.62,4.06-14.96,4.82c-1.87,0.27-3.77,0.42-5.71,0.45c-0.31,0.02-0.62,0.02-0.93,0.02c-3.76,0-7.43-0.45-10.93-1.29
			c-5.11-1.23-9.9-3.3-14.2-6.06c-1.56-0.99-3.05-2.08-4.47-3.27c-2.01-1.64-3.88-3.46-5.59-5.43c-0.78-0.91-1.54-1.84-2.25-2.8
			c-0.16-0.21-0.31-0.41-0.46-0.62c-1.71-2.39-3.21-4.95-4.45-7.65c-2.75-5.94-4.27-12.55-4.27-19.5
			c0-25.75,20.87-46.62,46.62-46.62S239.14,175.056,239.14,200.806z"/>
	</g>
	<g>
		<path style="fill:#40507F;" d="M222.039,236.894c-1.09,0.89-2.22,1.74-3.39,2.53c-0.86,0.58-1.74,1.14-2.64,1.66
			c-5.08,2.97-10.77,5-16.85,5.87c-1.87,0.27-3.77,0.42-5.71,0.45c-0.31,0.02-0.62,0.02-0.93,0.02c-3.76,0-7.43-0.45-10.93-1.29
			c-5.11-1.23-9.9-3.3-14.2-6.06c-1.56-0.99-3.05-2.08-4.47-3.27c-2.01-1.64-3.88-3.46-5.59-5.43c-0.78-0.91-1.54-1.84-2.25-2.8
			c3.18-7.53,8.99-18.32,16.91-20.96c12.47-4.16,39.04,1.7,39.04,1.7S220.129,213.734,222.039,236.894z"/>
	</g>
	<g>
		<path style="fill:#40507F;" d="M216.009,241.084c-5.08,2.97-10.77,5-16.85,5.87c-1.87,0.27-3.77,0.42-5.71,0.45
			c-0.31,0.02-0.62,0.02-0.93,0.02c-3.76,0-7.43-0.45-10.93-1.29c-5.11-1.23-9.9-3.3-14.2-6.06c-1.56-0.99-3.05-2.08-4.47-3.27
			c0.08-12.19,1-23.33,3.95-25.99c1.48-1.34,3.25-2.39,5.12-3.2c4.33-1.87,9.17-2.5,12.35-2.71c2.11-0.14,3.48-0.09,3.48-0.09
			s2.83,0.11,6.63,0.53c1.05,0.13,2.11,0.26,3.22,0.42c6.47,0.93,14.05,2.74,16.01,6.16
			C215.369,214.864,215.909,228.034,216.009,241.084z"/>
	</g>
	<g>
		<path d="M201.47,180.396l-19.27,14.59c0,0-10.5-10.54-6.23-16.56c2.65-3.75,8.01-5.55,11.68-6.38c0.42-0.09,0.81-0.17,1.18-0.24
			c1.58-0.31,2.64-0.4,2.64-0.4l0.01,0.06c0.67-0.25,7.35-5.08,11.01-3.48C207.52,170.176,201.47,180.396,201.47,180.396z"/>
	</g>
	<g>
		<g>
			<path style="fill:#F48462;" d="M184.199,197.265l-0.635,10.354c0,0,1.685,3.091,7.711,3.955c4.49,0.644,6.137-0.279,6.137-0.279
				l-0.307-5.282l-0.306-5.152l-10.789-3.077L184.199,197.265z"/>
		</g>
	</g>
	<g>
		<g>
			<path d="M186.009,197.784c0.009,0.284,0.096,0.625,0.24,1.017c1.999,5.314,8.264,6.818,10.856,7.211l-0.306-5.152
				L186.009,197.784z"/>
		</g>
	</g>
	<g>
		<g>
			<path style="fill:#F48462;" d="M200.556,177.403c0,0,4.637,13.315,2.053,20.396c-2.585,7.081-9.09,5.435-12.928,3.732
				c-3.837-1.703-5.482-4.263-5.482-4.263s-3.781,0.966-5.982-2.65c-2.201-3.616-0.381-7.435,1.793-8.175
				c2.173-0.74,4.559,0.972,4.559,0.972l-1.673-3.894C182.894,183.52,192.609,165.13,200.556,177.403z"/>
		</g>
	</g>
	<g>
		<path d="M183.866,193.068c-0.111,0-0.223-0.037-0.316-0.113l-4.459-3.641c-0.214-0.174-0.246-0.49-0.071-0.704
			c0.174-0.214,0.488-0.246,0.704-0.071l4.459,3.641c0.214,0.174,0.246,0.49,0.071,0.704
			C184.155,193.005,184.011,193.068,183.866,193.068z"/>
	</g>
	<g>
		<path d="M179.618,192.749c-0.235,0-0.444-0.166-0.49-0.405c-0.053-0.271,0.125-0.533,0.396-0.585l3.12-0.603
			c0.271-0.054,0.533,0.125,0.586,0.396c0.053,0.271-0.125,0.533-0.396,0.585l-3.12,0.603
			C179.682,192.747,179.649,192.749,179.618,192.749z"/>
	</g>
	<g>
		<path d="M191.587,182.974c-0.117,0-0.234-0.04-0.329-0.124c-0.208-0.182-0.229-0.498-0.047-0.706
			c1.553-1.777,3.456-1.315,4.246-0.823c0.234,0.146,0.306,0.455,0.16,0.689c-0.146,0.232-0.453,0.305-0.687,0.161
			c-0.164-0.099-1.619-0.912-2.967,0.631C191.864,182.916,191.726,182.974,191.587,182.974z"/>
	</g>
	<g>
		<path d="M201.646,182.549c-0.123,0-0.245-0.044-0.341-0.135c-1.002-0.936-2.158-0.363-2.169-0.358
			c-0.247,0.126-0.547,0.027-0.672-0.218c-0.126-0.246-0.028-0.547,0.218-0.672c0.072-0.038,1.796-0.893,3.306,0.519
			c0.202,0.189,0.212,0.505,0.024,0.707C201.912,182.496,201.779,182.549,201.646,182.549z"/>
	</g>
	<g>
		<path d="M199.298,192.292c-0.057,0-0.115-0.01-0.172-0.03c-0.259-0.095-0.393-0.382-0.298-0.642
			c1.326-3.623-0.45-5.739-0.468-5.76c-0.181-0.209-0.157-0.524,0.052-0.705c0.208-0.18,0.524-0.158,0.705,0.052
			c0.089,0.104,2.176,2.588,0.651,6.757C199.693,192.166,199.502,192.292,199.298,192.292z"/>
	</g>
	<g>
		<path d="M201.294,187.52c-0.232,0-0.44-0.162-0.489-0.398l-0.502-2.415c-0.007-0.035-0.01-0.069-0.01-0.102
			c0-0.232,0.162-0.44,0.398-0.489c0.271-0.057,0.535,0.118,0.592,0.388l0.503,2.415c0.007,0.035,0.01,0.069,0.01,0.102
			c0,0.232-0.162,0.44-0.398,0.489C201.361,187.517,201.327,187.52,201.294,187.52z"/>
	</g>
	<g>
		<path d="M193.73,187.696c-0.232,0-0.44-0.162-0.489-0.398l-0.502-2.414c-0.056-0.27,0.118-0.535,0.388-0.592
			c0.273-0.056,0.535,0.117,0.592,0.388l0.502,2.414c0.056,0.271-0.118,0.535-0.388,0.592
			C193.798,187.693,193.764,187.696,193.73,187.696z"/>
	</g>
	<g>
		<path d="M201.466,180.395c0,0-0.997-2.15-3.578-2.327c-2.582-0.176-4.201,1.55-4.201,1.55s0.866,4.419-2.788,6.514
			c-3.654,2.095-6.332,1.282-6.332,1.282l-2.492-1.064l-1.64-3.837l7.857-7.49l9.847-4.449l4.59,4.711L201.466,180.395z"/>
	</g>
	<g>
		<path d="M196.441,196.257c-0.403,0-2.788-0.102-3.718-2.448c-0.102-0.256,0.024-0.547,0.281-0.649
			c0.255-0.102,0.547,0.024,0.649,0.281c0.732,1.846,2.724,1.82,2.811,1.815c0.26-0.015,0.506,0.21,0.514,0.485
			c0.009,0.275-0.206,0.505-0.481,0.515C196.488,196.256,196.469,196.257,196.441,196.257z"/>
	</g>
	<g>
		<path style="fill:#FFFFFF;" d="M194.586,212.378c-6.778,0-11.937-4.694-12.187-4.926c-0.203-0.188-0.214-0.504-0.027-0.707
			c0.188-0.203,0.504-0.216,0.707-0.027c0.068,0.063,6.824,6.191,14.682,4.279c0.267-0.066,0.539,0.099,0.605,0.366
			c0.065,0.269-0.099,0.539-0.367,0.605C196.827,212.254,195.685,212.378,194.586,212.378z"/>
	</g>
	<g>
		<path style="fill:#40507F;" d="M230.29,228.146c-0.13,0.18-0.25,0.35-0.38,0.52c-2.28,3.05-4.93,5.81-7.87,8.23
			c-1.08,0.88-2.2,1.73-3.36,2.51l-8.68-3.7l3.109-24.566L230.29,228.146z"/>
	</g>
</g>
<g>
	<g>
		<path style="fill:#E8E1EF;" d="M611.339,199.822c0,9.21-2.67,17.8-7.29,25.04c-0.82,1.28-1.7,2.52-2.63,3.72
			c-2.88,3.66-6.29,6.88-10.12,9.54c-0.42,0.29-0.85,0.58-1.28,0.86c-2.35,1.52-4.85,2.84-7.47,3.93c-0.69,0.28-1.38,0.55-2.08,0.8
			c-4.92,1.77-10.22,2.73-15.75,2.73c-0.36,0-0.73,0-1.1-0.01c-4.62-0.11-9.08-0.89-13.28-2.25c-5.73-1.85-10.97-4.79-15.48-8.56
			c-0.2-0.16-0.41-0.34-0.61-0.51c-1.38-1.19-2.68-2.46-3.91-3.8c-0.16-0.17-0.31-0.34-0.46-0.52
			c-7.34-8.23-11.79-19.08-11.79-30.97c0-25.75,20.88-46.62,46.63-46.62C590.459,153.202,611.339,174.072,611.339,199.822z"/>
	</g>
	<g>
		<path style="fill:#40507F;" d="M550.339,244.182c-5.73-1.85-10.97-4.79-15.48-8.56c-0.2-0.16-0.41-0.34-0.61-0.51
			c-1.38-1.19-2.68-2.46-3.91-3.8c-0.16-0.17-0.31-0.34-0.46-0.52c4.7-13.69,12.51-24.6,21.51-24.57
			C562.619,206.312,556.769,227.412,550.339,244.182z"/>
	</g>
	<g>
		<path d="M570.592,178.535c0,0,13.345-3.591,23.271,8.566c9.926,12.156,3.758,27.121-11.968,26.691
			c-15.726-0.43-19.382-16.501-19.382-16.501L570.592,178.535z"/>
	</g>
	<g>
		<path style="fill:#40507F;" d="M590.019,238.982c-2.35,1.52-4.85,2.84-7.47,3.93c-0.69,0.28-1.38,0.55-2.08,0.8
			c-4.92,1.77-10.22,2.73-15.75,2.73c-0.36,0-0.73,0-1.1-0.01c-10.93-0.25-20.94-4.27-28.76-10.81c0.94-10.5,2.21-18.94,3.9-21.37
			c3.55-5.11,7.72-6.99,12.63-8.03c2.62-0.54,5.39-0.83,8.39-1.26c4.4-0.61,9.7-0.48,14.44,0.06h0.06
			c4.64,0.54,8.75,1.49,10.93,2.56C587.019,208.462,588.759,222.522,590.019,238.982z"/>
	</g>
	<g>
		<path style="fill:#92B4EA;" d="M553.421,196.448c-0.558,2.55-2.089,4.381-3.42,4.09c-1.331-0.291-1.957-2.594-1.399-5.144
			c0.558-2.55,2.089-4.381,3.42-4.09C553.353,191.594,553.979,193.898,553.421,196.448z"/>
	</g>
	<g>
		<path style="fill:#40507F;" d="M601.419,228.582c-2.88,3.66-6.29,6.88-10.12,9.54c-2.72,1.89-5.65,3.5-8.75,4.79
			c-0.69,0.28-1.38,0.55-2.08,0.8l-8.58-38.69c0,0,0.85-0.07,2.33,0h0.06C578.969,205.282,592.139,205.102,601.419,228.582z"/>
	</g>
	<g>
		<path d="M550.558,188.54c0,0-3.794-4.034-2.846-10.417c0.643-4.327,2.535-5.76,2.535-5.76s-3.037-5.831,5.673-5.642
			c8.71,0.189,15.846-0.554,19.727,6.938c2.286,4.414,1.376,14.001,1.376,14.001L550.558,188.54z"/>
	</g>
	<g>
		<g>
			<g>
				<g>
					<path style="fill:#F48462;" d="M569.801,195.343l-0.062,10.629c0,0-1.935,3.044-8.156,3.513
						c-4.634,0.349-6.087-2.038-6.087-2.038l1.176-9.294l11.242-2.404L569.801,195.343z"/>
				</g>
			</g>
		</g>
	</g>
	<g>
		<g>
			<g>
				<g>
					<path d="M569.789,194.695c-0.029,0.29-0.141,0.632-0.315,1.024c-2.409,5.296-10.792,7.456-13.469,7.68l0.667-5.246
						L569.789,194.695z"/>
				</g>
			</g>
		</g>
	</g>
	<g>
		<g>
			<g>
				<g>
					<path style="fill:#F48462;" d="M554.444,173.912c0,0-5.656,13.294-3.5,20.711c2.156,7.417,8.92,6.181,12.961,4.704
						c4.04-1.477,5.898-3.981,5.898-3.981s3.799,1.247,6.298-2.299c2.499-3.546,0.9-7.575-1.271-8.481
						c-2.171-0.906-4.728,0.68-4.728,0.68l1.978-3.867C572.081,181.38,563.413,161.91,554.444,173.912z"/>
				</g>
			</g>
		</g>
	</g>
	<g>
		<g>
			<g>
				<g>
					<path d="M570.102,185.246c0,0-5.67,1.258-9.746-5c-4.076-6.258-3.763-8.866-3.763-8.866l-3.814,6.615
						c0,0-0.968-4.517,0.79-7.442s3.652-2.362,3.652-2.362l12.61,2.894l3.498,9.996L570.102,185.246z"/>
				</g>
			</g>
		</g>
	</g>
	<g>
		<path d="M555.211,190.805c-0.21,0-0.406-0.134-0.476-0.344c-0.934-2.853,1.034-5.794,1.119-5.918
			c0.155-0.227,0.466-0.286,0.693-0.132c0.229,0.155,0.288,0.466,0.134,0.694c-0.018,0.026-1.775,2.665-0.995,5.045
			c0.086,0.263-0.058,0.545-0.32,0.631C555.315,190.797,555.263,190.805,555.211,190.805z"/>
	</g>
	<g>
		<path d="M570.76,191.523c-0.12,0-0.241-0.043-0.337-0.131c-0.204-0.186-0.219-0.502-0.032-0.707l3.533-3.869
			c0.187-0.204,0.503-0.218,0.706-0.032c0.204,0.186,0.219,0.503,0.032,0.707l-3.533,3.869
			C571.03,191.469,570.896,191.523,570.76,191.523z"/>
	</g>
	<g>
		<path d="M574.55,190.44c-0.022,0-0.045-0.001-0.067-0.004l-2.493-0.336c-0.274-0.037-0.466-0.289-0.429-0.563
			c0.036-0.274,0.292-0.466,0.562-0.429l2.493,0.336c0.274,0.037,0.466,0.289,0.429,0.563
			C575.011,190.258,574.796,190.44,574.55,190.44z"/>
	</g>
	<g>
		<path d="M552.453,180.014c-0.234,0-0.443-0.166-0.49-0.405c-0.052-0.271,0.125-0.534,0.396-0.586l2.343-0.454
			c0.259-0.053,0.532,0.124,0.586,0.395c0.052,0.271-0.125,0.534-0.397,0.586l-2.343,0.454
			C552.518,180.011,552.485,180.014,552.453,180.014z"/>
	</g>
	<g>
		<path d="M562.254,181.369c-0.073,0-0.148-0.016-0.217-0.05l-3.893-1.878c-0.249-0.12-0.354-0.419-0.233-0.668
			c0.12-0.25,0.422-0.352,0.667-0.233l3.893,1.878c0.249,0.12,0.354,0.419,0.233,0.667
			C562.618,181.265,562.44,181.369,562.254,181.369z"/>
	</g>
	<g>
		<path d="M552.559,185.447c-0.045,0-0.092-0.006-0.138-0.019c-0.266-0.076-0.419-0.353-0.343-0.619l0.613-2.146l-0.577-0.68
			c-0.179-0.21-0.153-0.526,0.057-0.705c0.213-0.179,0.527-0.152,0.705,0.057l0.751,0.884c0.108,0.128,0.146,0.3,0.1,0.461
			l-0.688,2.403C552.977,185.304,552.776,185.447,552.559,185.447z"/>
	</g>
	<g>
		<path d="M559.257,185.96c-0.045,0-0.092-0.006-0.138-0.02c-0.266-0.076-0.419-0.353-0.343-0.618l0.612-2.139l-0.854-0.958
			c-0.184-0.206-0.166-0.522,0.04-0.706c0.207-0.184,0.523-0.165,0.706,0.041l1.037,1.164c0.114,0.128,0.155,0.305,0.107,0.47
			l-0.689,2.403C559.675,185.817,559.475,185.96,559.257,185.96z"/>
	</g>
	<g>
		<path d="M557.133,194.256c-0.318,0-0.631-0.066-0.928-0.222c-0.245-0.128-0.34-0.43-0.212-0.675
			c0.13-0.244,0.435-0.338,0.675-0.211c1.029,0.536,2.922-1.101,3.503-1.719c0.19-0.201,0.506-0.211,0.707-0.021
			c0.201,0.189,0.211,0.505,0.021,0.706C560.662,192.368,558.83,194.256,557.133,194.256z"/>
	</g>
	<g>
		<path style="fill:#F48462;" d="M555.753,205.418l-5.3,0.925c0,0,0.112,7.103,10.082,8c9.97,0.897,16.665-9.038,16.665-9.038
			l-10.47-1.269L555.753,205.418z"/>
	</g>
	<g>
		<path style="fill:#92B4EA;" d="M574.988,197.044c0.162,2.605-0.809,4.786-2.169,4.87c-1.359,0.085-2.593-1.959-2.755-4.564
			c-0.162-2.605,0.809-4.786,2.169-4.87C573.593,192.395,574.826,194.439,574.988,197.044z"/>
	</g>
	<g>
		<path style="fill:#92B4EA;" d="M545.852,241.335c-0.133,0-0.266-0.053-0.363-0.157c-9.192-9.746-1.468-19.644-1.389-19.742
			c0.173-0.214,0.488-0.248,0.702-0.078c0.216,0.173,0.251,0.487,0.079,0.703c-0.3,0.376-7.253,9.326,1.334,18.432
			c0.189,0.2,0.181,0.517-0.021,0.706C546.098,241.29,545.975,241.335,545.852,241.335z"/>
	</g>
</g>
<g>
	<g>
		<path style="fill:#E8E1EF;" d="M362.884,200.806c0,8.37-2.21,16.23-6.08,23.03c-1.1,1.93-2.34,3.78-3.7,5.53
			c-2,2.58-4.26,4.94-6.75,7.04c-0.07,0.06-0.14,0.12-0.21,0.17c-3.02,2.53-6.36,4.68-9.96,6.39c-1.62,0.77-3.3,1.45-5.02,2.03
			c-4.68,1.57-9.69,2.43-14.9,2.43c-4.47,0-8.79-0.63-12.88-1.81c-3.6-1.03-7.02-2.48-10.2-4.3c-4.39-2.5-8.34-5.7-11.68-9.44
			c-0.2-0.22-0.39-0.44-0.58-0.66c-0.31-0.35-0.61-0.71-0.9-1.07c-1.38-1.7-2.64-3.5-3.77-5.38c-4.2-7.01-6.62-15.2-6.62-23.96
			c0-25.75,20.88-46.62,46.63-46.62C342.004,154.186,362.884,175.056,362.884,200.806z"/>
	</g>
	<g>
		<path d="M309.066,180.891c0,0-8.083-6.462-4.403-11.817c3.681-5.355,11.57,0.093,11.57,0.093s3.074-3.075,7.422-0.587
			s4.845,8.556,4.845,8.556s4.429-0.101,4.683,5.289c0.253,5.39-5.548,10.189-5.548,10.189L309.066,180.891z"/>
	</g>
	<g>
		<path style="fill:#6876AA;" d="M346.144,236.576c-3.02,2.53-6.36,4.68-9.96,6.39c-1.62,0.77-3.3,1.45-5.02,2.03
			c-4.68,1.57-9.69,2.43-14.9,2.43c-4.47,0-8.79-0.63-12.88-1.81c-3.6-1.03-7.02-2.48-10.2-4.3l-0.55-31.16
			c12.34-8.66,24.31-6.5,24.31-6.5s15.72-1.79,23.93,5.72c1.2,1.1,2.22,2.36,3.01,3.85
			C345.194,215.676,345.844,225.516,346.144,236.576z"/>
	</g>
	<g>
		<g>
			<path style="fill:#F48462;" d="M323.254,195.58l0.102,10.271c0,0-1.823,2.971-7.826,3.519c-4.472,0.408-6.055-0.588-6.055-0.588
				l0.573-5.208l0.565-5.079l10.826-2.494L323.254,195.58z"/>
		</g>
	</g>
	<g>
		<g>
			<path d="M321.438,196.001c-0.023,0.281-0.127,0.613-0.289,0.994c-2.247,5.153-8.519,6.322-11.102,6.579l0.565-5.079
				L321.438,196.001z"/>
		</g>
	</g>
	<g>
		<g>
			<path style="fill:#F48462;" d="M308.09,175.107c0,0-5.263,12.93-3.067,20.064c2.196,7.133,8.713,5.836,12.594,4.348
				c3.881-1.488,5.638-3.936,5.638-3.936s3.69,1.148,6.051-2.317c2.361-3.464,0.755-7.333-1.357-8.175
				c-2.112-0.842-4.557,0.729-4.557,0.729l1.852-3.766C325.244,182.054,316.573,163.375,308.09,175.107z"/>
		</g>
	</g>
	<g>
		<path d="M323.822,191.452c-0.153,0-0.305-0.071-0.403-0.204c-0.163-0.223-0.115-0.536,0.107-0.699l4.594-3.374
			c0.221-0.163,0.534-0.117,0.699,0.107c0.163,0.223,0.115,0.536-0.107,0.699l-4.594,3.374
			C324.029,191.42,323.926,191.452,323.822,191.452z"/>
	</g>
	<g>
		<path d="M328.039,191.353c-0.039,0-0.08-0.004-0.12-0.015l-3.055-0.754c-0.268-0.066-0.432-0.337-0.365-0.605
			c0.066-0.267,0.336-0.434,0.605-0.365l3.055,0.754c0.268,0.066,0.432,0.337,0.365,0.605
			C328.468,191.201,328.264,191.353,328.039,191.353z"/>
	</g>
	<g>
		<path d="M316.742,180.53c-0.057,0-0.114-0.01-0.171-0.03c-0.758-0.276-2.94-0.398-3.718-0.421
			c-0.275-0.009-0.492-0.239-0.484-0.515c0.009-0.276,0.191-0.487,0.516-0.485c0.302,0.009,2.983,0.101,4.028,0.482
			c0.26,0.094,0.394,0.381,0.299,0.641C317.138,180.404,316.946,180.53,316.742,180.53z"/>
	</g>
	<g>
		<path d="M306.775,180.145c-0.241,0-0.454-0.176-0.493-0.422c-0.043-0.273,0.144-0.529,0.416-0.572
			c1.353-0.213,1.767-0.195,1.837-0.189c0.274,0.024,0.479,0.267,0.454,0.542c-0.023,0.271-0.263,0.47-0.532,0.455
			c-0.03-0.005-0.393-0.012-1.603,0.179C306.828,180.144,306.802,180.145,306.775,180.145z"/>
	</g>
	<g>
		<path d="M309.389,191.569c-0.214,0-0.411-0.138-0.478-0.353c-1.285-4.163,0.858-7.159,0.95-7.284
			c0.162-0.221,0.474-0.271,0.697-0.108c0.223,0.162,0.272,0.475,0.11,0.698c-0.02,0.027-1.935,2.732-0.803,6.399
			c0.082,0.264-0.066,0.544-0.33,0.625C309.487,191.562,309.438,191.569,309.389,191.569z"/>
	</g>
	<g>
		<path d="M306.871,185.08c-0.042,0-0.084-0.005-0.127-0.016c-0.267-0.07-0.427-0.344-0.356-0.611l0.619-2.362
			c0.069-0.268,0.341-0.425,0.61-0.357c0.267,0.07,0.427,0.344,0.356,0.611l-0.619,2.362
			C307.296,184.932,307.093,185.08,306.871,185.08z"/>
	</g>
	<g>
		<path d="M313.372,185.143c-0.042,0-0.084-0.005-0.127-0.016c-0.267-0.07-0.427-0.344-0.356-0.611l0.619-2.362
			c0.07-0.267,0.34-0.423,0.61-0.357c0.267,0.07,0.427,0.344,0.356,0.611l-0.619,2.362
			C313.797,184.994,313.594,185.143,313.372,185.143z"/>
	</g>
	<g>
		<path d="M307.038,178.02c0,0,1.095-2.076,3.657-2.119c2.562-0.043,4.076,1.747,4.076,1.747s-1.081,4.325,2.425,6.583
			c3.507,2.257,6.196,1.59,6.196,1.59l2.518-0.926l1.817-3.711l-7.388-7.806l-9.511-4.901l-4.778,4.425L307.038,178.02z"/>
	</g>
	<g>
		<path d="M311.364,193.969c-0.123,0-0.201-0.006-0.219-0.008c-0.275-0.023-0.479-0.266-0.455-0.541
			c0.024-0.275,0.289-0.48,0.539-0.455c0.097,0.009,2.053,0.133,2.866-1.65c0.115-0.251,0.412-0.362,0.663-0.247
			c0.251,0.114,0.361,0.411,0.247,0.662C314.064,193.791,312.037,193.969,311.364,193.969z"/>
	</g>
	<g>
		<path style="fill:#F7B369;" d="M310.047,203.573c0,0-2.118,2.246-3.38,6.389c-0.716,2.35-0.54,5.818-0.047,5.822
			c0.493,0.004,4.191-5.718,6.55-6.067c2.359-0.348,4.333,6.502,5.34,6.742c1.007,0.24,4.923-2.456,6.313-6.358
			c1.39-3.903-1.104-6.418-1.104-6.418S311.544,212.924,310.047,203.573z"/>
	</g>
	<g>
		<path style="fill:#6876AA;" d="M303.384,245.616c-3.6-1.03-7.02-2.48-10.2-4.3c-4.39-2.5-8.34-5.7-11.68-9.44
			c-0.2-0.22-0.39-0.44-0.58-0.66c0.44-1.35,0.92-2.7,1.45-4.01c4.81-11.98,10.26-17.05,10.26-17.05L303.384,245.616z"/>
	</g>
	<g>
		<path style="fill:#6876AA;" d="M353.104,229.366c-2,2.58-4.26,4.94-6.75,7.04c-0.07,0.06-0.14,0.12-0.21,0.17
			c-3.02,2.53-6.36,4.68-9.96,6.39l4.69-33.59C340.874,209.376,347.454,214.446,353.104,229.366z"/>
	</g>
	<g>
		<path style="fill:#F7B369;" d="M292.536,239.424c-0.017,0-0.035-0.001-0.052-0.003c-0.275-0.028-0.475-0.273-0.446-0.548
			l0.951-9.251c0.028-0.275,0.29-0.476,0.548-0.446c0.275,0.028,0.475,0.273,0.446,0.548l-0.951,9.251
			C293.006,239.232,292.789,239.424,292.536,239.424z"/>
	</g>
</g>
<g>
	<g>
		<path style="fill:#E8E1EF;" d="M239.39,79.098c0,6.26-1.23,12.23-3.47,17.68c-1.33,3.23-3.01,6.28-5,9.1
			c-0.46,0.67-0.95,1.32-1.45,1.96c-0.05,0.06-0.09,0.12-0.14,0.17c-0.04,0.05-0.08,0.1-0.13,0.15c-1.71,2.15-3.6,4.15-5.67,5.96
			c-0.49,0.44-1,0.86-1.51,1.27c-1.78,1.44-3.66,2.74-5.65,3.9c-1.39,0.83-2.84,1.58-4.32,2.26c-0.45,0.21-0.91,0.41-1.38,0.6
			c-1.73,0.73-3.52,1.35-5.36,1.86c-2.65,0.74-5.39,1.25-8.21,1.5c-0.56,0.06-1.12,0.1-1.69,0.13c-0.87,0.05-1.75,0.08-2.64,0.08
			c-0.93,0-1.85-0.03-2.76-0.08c-0.71-0.04-1.42-0.1-2.13-0.17c-1.05-0.11-2.09-0.26-3.12-0.44c-0.28-0.05-0.55-0.1-0.82-0.15
			c-0.4-0.08-0.79-0.16-1.19-0.25c-0.45-0.1-0.91-0.21-1.36-0.32c-0.21-0.05-0.43-0.1-0.64-0.16c-0.44-0.12-0.88-0.24-1.32-0.37
			c-0.04-0.01-0.07-0.02-0.11-0.03c-1.28-0.39-2.56-0.83-3.79-1.33c-0.04-0.02-0.08-0.03-0.12-0.05c-0.88-0.35-1.75-0.73-2.6-1.14
			c-0.57-0.26-1.13-0.54-1.68-0.84c-0.77-0.39-1.53-0.82-2.27-1.27c-0.31-0.18-0.62-0.37-0.91-0.57c-0.07-0.03-0.14-0.08-0.2-0.12
			c-0.23-0.13-0.45-0.28-0.68-0.43c-0.02-0.01-0.03-0.02-0.05-0.04c-0.52-0.34-1.05-0.7-1.56-1.07c-0.27-0.2-0.54-0.39-0.8-0.59
			c-1.56-1.18-3.04-2.45-4.44-3.82c-0.06-0.05-0.11-0.11-0.17-0.16c-0.16-0.16-0.32-0.33-0.47-0.49c-0.15-0.16-0.31-0.31-0.45-0.47
			c-2.87-2.97-5.33-6.31-7.31-9.95c-0.38-0.69-0.74-1.4-1.08-2.12c-0.29-0.58-0.55-1.17-0.81-1.77c-2.44-5.65-3.79-11.88-3.79-18.42
			c0-25.75,20.88-46.62,46.63-46.62S239.39,53.347,239.39,79.098z"/>
	</g>
	<g>
		<path style="fill:#92B4EA;" d="M229.2,108.158c-1.71,2.15-3.6,4.15-5.67,5.96c-0.49,0.44-1,0.86-1.51,1.27
			c-1.78,1.44-3.66,2.74-5.65,3.9c-1.39,0.83-2.84,1.58-4.32,2.26c-0.45,0.21-0.91,0.41-1.38,0.6c-2.59-18.01,4.82-30.7,4.82-30.7
			S222.04,97.637,229.2,108.158z"/>
	</g>
	<g>
		<path d="M193.861,72.699h-10.92l-10.847,29.136l41.684-3.099c0,0,2.473-13.017-4.342-25.258
			C202.62,61.236,193.861,72.699,193.861,72.699z"/>
	</g>
	<g>
		<g>
			<g>
				<path d="M192.52,61.487l-12.87,33.42c0,0-2.83,21.26-6.84,26.32c-0.57-0.26-1.13-0.54-1.68-0.84c-0.77-0.39-1.53-0.82-2.27-1.27
					c-0.31-0.18-0.62-0.37-0.91-0.57c-0.07-0.03-0.14-0.08-0.2-0.12c-0.23-0.13-0.45-0.28-0.68-0.43c-0.02-0.01-0.03-0.02-0.05-0.04
					c-0.52-0.34-1.05-0.7-1.56-1.07c-0.27-0.2-0.54-0.39-0.8-0.59c-1.56-1.18-3.04-2.45-4.44-3.82c-0.22-0.21-0.44-0.43-0.64-0.65
					c-0.15-0.16-0.31-0.31-0.45-0.47c-2.87-2.97-5.33-6.31-7.31-9.95c-0.38-0.69-0.74-1.4-1.08-2.12c0.97-2.44,2.4-4.43,4.14-5.51
					c6.87-4.25,10.08-0.51,12.97-4c3.85-4.63-0.58-7.75,1.48-13.97c2.11-6.35,6.64-6.22,10.8-8.79c3.84-2.36,3.52-7.71,3.95-9.85
					c0.23-1.16,0.41-0.65,0.75-0.43L192.52,61.487z"/>
			</g>
		</g>
	</g>
	<g>
		<path d="M184.274,60.393c-0.447-0.991-0.619-2.09-0.452-3.165c0.179-1.147,0.529-2.377,0.783-3.052
			c1.258-3.334,4.832-9.503,13.896-8.592c12.332,1.24,10.935,23.379,10.935,23.379l-22.053-1.684L184.274,60.393z"/>
	</g>
	<g>
		<path style="fill:#F7B369;" d="M222.02,115.387c-1.78,1.44-3.66,2.74-5.65,3.9c-1.39,0.83-2.84,1.58-4.32,2.26
			c-2.16,0.99-4.41,1.81-6.74,2.46c-2.65,0.74-5.39,1.25-8.21,1.5c-0.56,0.06-1.12,0.1-1.69,0.13c-0.87,0.05-1.75,0.08-2.64,0.08
			c-0.93,0-1.85-0.03-2.76-0.08c-0.71-0.04-1.42-0.1-2.13-0.17c-1.05-0.11-2.09-0.26-3.12-0.44c-0.68-0.12-1.34-0.25-2.01-0.4
			c-0.45-0.1-0.91-0.21-1.36-0.32c-0.21-0.05-0.43-0.1-0.64-0.16c-0.44-0.12-0.88-0.24-1.32-0.37c-1.32-0.39-2.63-0.85-3.9-1.36
			c-0.04-0.02-0.08-0.03-0.12-0.05c-1.47-0.59-2.9-1.24-4.28-1.98c-0.77-0.39-1.53-0.82-2.27-1.27c-0.31-0.18-0.62-0.37-0.91-0.57
			c0.93-9.61,2.96-18.29,6.89-23.21c3.68-4.59,7.78-7.53,11.62-9.41c7.98-3.9,14.94-3.25,14.94-3.25
			c11.8,1.45,18.23,13.52,19.74,21.25C221.48,105.677,221.77,109.897,222.02,115.387z"/>
	</g>
	<g>
		<g>
			<g>
				<g>
					<g>
						<path style="fill:#F48462;" d="M205.168,88.974c0,0-0.688,1.339-4.723,0.967c-6.211-0.576-8.201-3.347-8.201-3.347
							l-0.279-10.599l1.897,0.372l11.25,2.176l0.018,5.169L205.168,88.974z"/>
					</g>
				</g>
			</g>
		</g>
	</g>
	<g>
		<g>
			<g>
				<g>
					<g>
						<path d="M205.131,83.711c-2.956-0.298-8.628-1.525-10.934-6.341c-0.186-0.372-0.298-0.725-0.335-1.004l11.25,2.176
							L205.131,83.711z"/>
					</g>
				</g>
			</g>
		</g>
	</g>
	<g>
		<g>
			<g>
				<g>
					<g>
						<path style="fill:#F48462;" d="M206.87,54.338c0,0,5.894,13.144,3.887,20.579c-2.007,7.435-8.774,6.333-12.83,4.938
							c-4.056-1.395-5.956-3.856-5.956-3.856s-3.763,1.316-6.323-2.171c-2.559-3.487-1.043-7.534,1.104-8.479
							c2.147-0.945,4.726,0.587,4.726,0.587l-2.046-3.816C189.433,62.121,197.7,42.546,206.87,54.338z"/>
					</g>
				</g>
			</g>
		</g>
	</g>
	<g>
		<path d="M208.811,65.503c-0.244,0-0.458-0.179-0.494-0.427l-0.361-2.453c-0.021-0.143,0.021-0.288,0.114-0.397l0.985-1.154
			c0.181-0.21,0.496-0.235,0.705-0.056c0.21,0.179,0.235,0.495,0.056,0.705l-0.837,0.981l0.328,2.229
			c0.04,0.273-0.148,0.527-0.422,0.567C208.86,65.502,208.835,65.503,208.811,65.503z"/>
	</g>
	<g>
		<path d="M199.218,61.375c-0.077,0-0.155-0.018-0.228-0.055c-0.246-0.126-0.342-0.428-0.216-0.673
			c0.923-1.793,3.185-1.327,3.28-1.306c0.269,0.058,0.44,0.323,0.383,0.593c-0.057,0.27-0.32,0.44-0.592,0.385
			c-0.065-0.015-1.611-0.323-2.181,0.785C199.575,61.276,199.4,61.375,199.218,61.375z"/>
	</g>
	<g>
		<path d="M208.631,59.856c-0.16,0-0.316-0.076-0.413-0.217c-0.095-0.137-0.439-0.527-0.769-0.527c-0.272,0-0.524,0.287-0.689,0.526
			c-0.155,0.228-0.466,0.287-0.695,0.13c-0.228-0.156-0.286-0.467-0.13-0.695c0.437-0.639,0.946-0.962,1.514-0.962
			c0.916,0.001,1.528,0.865,1.595,0.963c0.155,0.229,0.096,0.54-0.133,0.694C208.826,59.828,208.728,59.856,208.631,59.856z"/>
	</g>
	<g>
		<g>
			<g>
				<g>
					<g>
						<path d="M191.479,65.937c0,0,5.775,0.155,9.718-6.162c3.943-6.317,3.482-7.92,3.482-7.92l3.928,6.521
							c0,0,0.878-4.521-0.93-7.404c-1.808-2.882-3.686-2.285-3.686-2.285l-12.515,3.127l-3.296,10.032L191.479,65.937z"/>
					</g>
				</g>
			</g>
		</g>
	</g>
	<g>
		<path d="M201.51,66.09c-0.248,0-0.463-0.184-0.496-0.437l-0.314-2.459c-0.02-0.156,0.035-0.313,0.149-0.423l1.269-1.223
			c0.199-0.192,0.516-0.185,0.707,0.013c0.192,0.199,0.186,0.516-0.013,0.707l-1.088,1.049l0.282,2.211
			c0.035,0.274-0.159,0.524-0.433,0.559C201.552,66.088,201.531,66.09,201.51,66.09z"/>
	</g>
	<g>
		<path d="M207.49,70.362c-0.273,0-0.496-0.219-0.5-0.493c-0.036-2.551-1.549-5.879-1.564-5.913
			c-0.115-0.251-0.005-0.548,0.246-0.663c0.252-0.115,0.547-0.004,0.663,0.246c0.066,0.144,1.616,3.555,1.655,6.315
			c0.004,0.276-0.217,0.503-0.493,0.507C207.495,70.362,207.492,70.362,207.49,70.362z"/>
	</g>
	<g>
		<path d="M204.353,75.373c-0.06,0-0.12-0.002-0.182-0.007c-1.741-0.124-2.65-2.389-2.688-2.485
			c-0.066-0.168-0.037-0.359,0.078-0.498c0.113-0.141,0.291-0.21,0.472-0.177l4.517,0.775c0.159,0.027,0.295,0.129,0.365,0.274
			c0.07,0.145,0.067,0.315-0.01,0.456C206.866,73.782,205.984,75.373,204.353,75.373z M202.878,73.366
			c0.336,0.484,0.812,0.964,1.364,1.004c0.552,0.037,1.005-0.248,1.313-0.545L202.878,73.366z"/>
	</g>
	<g>
		<path d="M190.999,71.498c-0.13,0-0.26-0.051-0.358-0.151l-3.616-3.719c-0.192-0.198-0.188-0.515,0.01-0.707
			c0.198-0.193,0.515-0.188,0.707,0.01l3.616,3.719c0.192,0.198,0.188,0.515-0.01,0.707
			C191.25,71.452,191.124,71.498,190.999,71.498z"/>
	</g>
	<g>
		<path d="M186.66,71.498c-0.207,0-0.399-0.128-0.472-0.334c-0.092-0.26,0.045-0.546,0.306-0.637l3.234-1.136
			c0.26-0.092,0.545,0.045,0.637,0.306c0.092,0.26-0.045,0.546-0.306,0.637l-3.234,1.136
			C186.771,71.49,186.715,71.498,186.66,71.498z"/>
	</g>
	<g>
		<path style="fill:#FFFFFF;" d="M202.006,90.529c-6.404,0-9.935-3.403-10.114-3.58c-0.196-0.194-0.198-0.51-0.004-0.706
			c0.194-0.197,0.51-0.198,0.707-0.005c0.05,0.049,5.11,4.888,13.97,2.717c0.268-0.068,0.54,0.098,0.605,0.366
			c0.066,0.268-0.098,0.539-0.366,0.604C205.061,90.354,203.459,90.529,202.006,90.529z"/>
	</g>
	<g>
		<path style="fill:#92B4EA;" d="M189.19,115.537c-1.24,3.89-3.11,6.94-5.25,9.34c-0.4-0.08-0.79-0.16-1.19-0.25
			c-0.45-0.1-0.91-0.21-1.36-0.32c-0.21-0.05-0.43-0.1-0.64-0.16c-0.44-0.12-0.88-0.24-1.32-0.37c-0.04-0.01-0.07-0.02-0.11-0.03
			c-1.28-0.39-2.56-0.83-3.79-1.33c-0.04-0.02-0.08-0.03-0.12-0.05c-0.88-0.35-1.75-0.73-2.6-1.14c-0.57-0.26-1.13-0.54-1.68-0.84
			c-0.77-0.39-1.53-0.82-2.27-1.27c-0.31-0.18-0.62-0.37-0.91-0.57c0.93-9.61,2.96-18.29,6.89-23.21c3.68-4.59,7.78-7.53,11.62-9.41
			C188.89,91.308,193.12,103.277,189.19,115.537z"/>
	</g>
	<g>
		<path style="fill:#92B4EA;" d="M182.79,88.027l-3.47,35.72c-1.28-0.39-2.56-0.83-3.79-1.33c-0.04-0.02-0.08-0.03-0.12-0.05
			c-0.88-0.35-1.75-0.73-2.6-1.14c-0.57-0.26-1.13-0.54-1.68-0.84c-0.77-0.39-1.53-0.82-2.27-1.27c-0.31-0.18-0.62-0.37-0.91-0.57
			c-0.07-0.03-0.14-0.08-0.2-0.12c-0.23-0.13-0.45-0.28-0.68-0.43c-0.02-0.01-0.03-0.02-0.05-0.04c-0.52-0.34-1.05-0.7-1.56-1.07
			c-0.27-0.2-0.54-0.39-0.8-0.59c-1.56-1.18-3.04-2.45-4.44-3.82c-0.06-0.05-0.11-0.11-0.17-0.16
			C168.25,97.048,182.79,88.027,182.79,88.027z"/>
	</g>
</g>
<g>
	<g>
		<path style="fill:#E8E1EF;" d="M487.23,200.806c0,10.98-3.8,21.08-10.17,29.04c-0.12,0.16-0.25,0.32-0.38,0.48
			c-0.28,0.35-0.58,0.7-0.88,1.05c-4.01,4.61-8.91,8.44-14.46,11.19c-0.15,0.07-0.3,0.15-0.45,0.22c-0.61,0.29-1.22,0.58-1.85,0.84
			c-0.66,0.28-1.32,0.55-2,0.81c-5.1,1.94-10.64,2.99-16.43,2.99c-7.28,0-14.18-1.67-20.32-4.66c-0.12-0.06-0.25-0.12-0.37-0.18
			c-0.9-0.44-1.78-0.91-2.64-1.41c-0.12-0.07-0.24-0.14-0.35-0.21c-4.32-2.54-8.19-5.76-11.46-9.52c-0.15-0.17-0.3-0.34-0.43-0.51
			c-1.57-1.82-2.98-3.77-4.23-5.83c-4.32-7.08-6.82-15.4-6.82-24.3c0-25.75,20.87-46.62,46.62-46.62S487.23,175.056,487.23,200.806z
			"/>
	</g>
	<g>
		<path d="M443.705,168.914c0,0,8.965-1.342,15.388,2.685c6.424,4.027,3.515,14.744,3.515,14.744s10.291,8.059,10.85,16.903
			c0.559,8.845-7.494,12.089-7.494,12.089l-21.221-3.244L443.705,168.914z"/>
	</g>
	<g>
		<path style="fill:#F7B369;" d="M423.23,207.106l-3.31,35.48c-0.9-0.44-1.78-0.91-2.64-1.41c-0.12-0.07-0.24-0.14-0.35-0.21
			c-4.32-2.54-8.19-5.76-11.46-9.52c-0.15-0.17-0.3-0.34-0.43-0.51c1.33-3.85,3.06-7.76,5.39-11.05
			C418.23,208.856,423.23,207.106,423.23,207.106z"/>
	</g>
	<g>
		<path style="fill:#F7B369;" d="M461.34,242.566c-0.15,0.07-0.3,0.15-0.45,0.22c-0.61,0.29-1.22,0.58-1.85,0.84
			c-0.66,0.28-1.32,0.55-2,0.81c-5.1,1.94-10.64,2.99-16.43,2.99c-7.28,0-14.18-1.67-20.32-4.66c-1.02-0.49-2.03-1.02-3.01-1.59
			c-0.12-0.07-0.24-0.14-0.35-0.21l6.3-33.86c0,0,10.49-4.92,18.7-4.67c1.7,0.04,3.39,0.29,5.05,0.67
			c6.35,1.39,11.96,4.82,13.59,8.18C461.31,212.796,461.45,226.046,461.34,242.566z"/>
	</g>
	<g>
		<path style="fill:#F7B369;" d="M477.06,229.846c-0.12,0.16-0.25,0.32-0.38,0.48c-0.28,0.35-0.58,0.7-0.88,1.05
			c-4.12,4.74-9.18,8.65-14.91,11.41c-0.61,0.29-1.22,0.58-1.85,0.84c-0.66,0.28-1.32,0.55-2,0.81h-9.23l-2.91-16.58l1.855-25.429
			C446.755,202.427,466.01,203.016,477.06,229.846z"/>
	</g>
	<g>
		<path style="fill:#92B4EA;" d="M446.802,203.661c0,0-3.704,5.437-8.029,8.709c-4.325,3.272-6.301,3.658-6.301,3.658l0.276-10.551
			L446.802,203.661z"/>
	</g>
	<g>
		<g>
			<path style="fill:#F48462;" d="M446.589,192.792l0.18,10.454c0,0-1.834,3.038-7.941,3.64c-4.549,0.449-6.168-0.553-6.168-0.553
				l0.544-5.305l0.537-5.174l11.001-2.619L446.589,192.792z"/>
		</g>
	</g>
	<g>
		<g>
			<path d="M444.743,193.234c-0.022,0.286-0.124,0.625-0.286,1.014c-2.249,5.262-8.625,6.499-11.252,6.78l0.537-5.174
				L444.743,193.234z"/>
		</g>
	</g>
	<g>
		<g>
			<path style="fill:#F48462;" d="M431,172.065c0,0-5.261,13.202-2.972,20.447c2.288,7.245,8.913,5.876,12.852,4.332
				c3.94-1.544,5.71-4.049,5.71-4.049s3.765,1.141,6.142-2.403c2.377-3.544,0.714-7.47-1.442-8.311
				c-2.156-0.842-4.634,0.776-4.634,0.776l1.858-3.847C448.514,179.008,439.547,160.059,431,172.065z"/>
		</g>
	</g>
	<g>
		<path d="M447.132,188.577c-0.152,0-0.303-0.069-0.4-0.201c-0.165-0.221-0.12-0.535,0.102-0.7l4.652-3.468
			c0.221-0.165,0.535-0.121,0.699,0.102c0.165,0.221,0.12,0.535-0.102,0.7l-4.652,3.468
			C447.341,188.544,447.236,188.577,447.132,188.577z"/>
	</g>
	<g>
		<path d="M451.424,188.444c-0.038,0-0.077-0.004-0.116-0.014l-3.115-0.745c-0.269-0.064-0.435-0.334-0.37-0.603
			c0.063-0.269,0.329-0.436,0.603-0.37l3.115,0.745c0.269,0.065,0.435,0.334,0.37,0.603
			C451.856,188.29,451.65,188.444,451.424,188.444z"/>
	</g>
	<g>
		<path d="M439.845,177.511c-0.146,0-0.292-0.064-0.391-0.188c-1.303-1.629-2.143-1.351-2.154-1.347
			c-0.248,0.091-0.541-0.03-0.642-0.278c-0.101-0.248,0-0.527,0.244-0.639c0.15-0.07,1.531-0.613,3.333,1.64
			c0.172,0.215,0.138,0.53-0.078,0.703C440.064,177.476,439.954,177.511,439.845,177.511z"/>
	</g>
	<g>
		<path d="M429.696,177.195c-0.141,0-0.281-0.059-0.38-0.175c-0.18-0.21-0.155-0.525,0.055-0.705
			c1.418-1.213,2.578-1.434,2.627-1.443c0.269-0.048,0.531,0.131,0.581,0.403c0.049,0.27-0.13,0.53-0.4,0.581
			c-0.023,0.004-0.971,0.204-2.157,1.219C429.927,177.155,429.812,177.195,429.696,177.195z"/>
	</g>
	<g>
		<path d="M431.627,187.11c-0.242,0-0.455-0.177-0.493-0.424c-0.565-3.674,1.033-6.311,1.102-6.421
			c0.145-0.234,0.451-0.306,0.687-0.162c0.235,0.145,0.308,0.452,0.164,0.688c-0.015,0.024-1.471,2.449-0.964,5.744
			c0.042,0.273-0.146,0.528-0.418,0.57C431.679,187.108,431.652,187.11,431.627,187.11z"/>
	</g>
	<g>
		<path d="M429.829,182.217c-0.04,0-0.082-0.005-0.123-0.016c-0.268-0.068-0.43-0.34-0.361-0.608l0.564-2.216l-0.648-1.159
			c-0.135-0.241-0.049-0.546,0.192-0.681c0.239-0.134,0.545-0.049,0.681,0.192l0.746,1.333c0.063,0.112,0.08,0.243,0.048,0.368
			l-0.613,2.409C430.256,182.066,430.053,182.217,429.829,182.217z"/>
	</g>
	<g>
		<path d="M437.422,182.232c-0.04,0-0.082-0.005-0.123-0.016c-0.268-0.068-0.43-0.34-0.361-0.608l0.552-2.169l-0.912-1.155
			c-0.171-0.217-0.134-0.531,0.083-0.703c0.216-0.171,0.53-0.135,0.702,0.083l1.065,1.349c0.097,0.122,0.131,0.283,0.092,0.434
			l-0.613,2.409C437.849,182.081,437.646,182.232,437.422,182.232z"/>
	</g>
	<g>
		<path d="M446.656,183.164l-1.913,2.529c0,0-4.081-5.658-4.07-8.812c0.011-3.154,0-4.25,0-4.25s-4.099,1.496-7.469,1.396
			c-3.37-0.1-5.496-1.895-5.272-3.49c0.224-1.595,2.215-6.481,12.74-4.886C451.199,167.246,451.397,179.538,446.656,183.164z"/>
	</g>
	<g>
		<path style="fill:#FFFFFF;" d="M427.45,217.758c-0.259,0-0.478-0.2-0.497-0.463c-0.021-0.275,0.186-0.515,0.461-0.536
			c0.106-0.008,10.746-0.954,19.146-13.925c0.151-0.233,0.462-0.295,0.691-0.148c0.232,0.15,0.298,0.46,0.148,0.691
			c-8.687,13.414-19.459,14.347-19.913,14.38C427.476,217.758,427.463,217.758,427.45,217.758z"/>
	</g>
	<g>
		<path style="fill:#FFFFFF;" d="M432.489,215.883c-0.289-0.008-0.507-0.237-0.5-0.513l0.296-11.334
			c0.007-0.275,0.227-0.491,0.513-0.487c0.276,0.008,0.494,0.237,0.487,0.513l-0.296,11.334
			C432.982,215.667,432.76,215.883,432.489,215.883z"/>
	</g>
	<g>
		<path d="M433.119,190.762c-0.217,0-0.423-0.042-0.607-0.142c-0.243-0.13-0.335-0.434-0.204-0.677
			c0.13-0.244,0.435-0.335,0.677-0.204c0.296,0.16,1.333-0.355,2.06-0.921c0.218-0.169,0.531-0.132,0.702,0.086
			c0.169,0.218,0.131,0.532-0.087,0.702C435.266,189.914,434.091,190.762,433.119,190.762z"/>
	</g>
</g>
<g>
	<g>
		<path style="fill:#E8E1EF;" d="M394.044,79.358c0,8.9,2.5,17.22,6.82,24.3c1.99,3.26,4.36,6.24,7.07,8.9
			c1.02,1.01,2.09,1.98,3.2,2.89c1.77,1.45,3.63,2.76,5.6,3.94c0.33,0.2,0.67,0.39,1.01,0.59c3,1.69,6.2,3.06,9.57,4.06
			c4.22,1.26,8.7,1.94,13.35,1.94c9.74,0,18.78-2.99,26.26-8.1c1.6-1.09,3.13-2.28,4.57-3.56c1.55-1.36,3.01-2.83,4.36-4.39
			c0.33-0.38,0.65-0.76,0.97-1.15c6.54-8.02,10.46-18.27,10.46-29.42c0-25.75-20.87-46.62-46.62-46.62
			S394.044,53.608,394.044,79.358z"/>
	</g>
	<g>
		<path d="M447.792,67.618c0,0,21.239-14.003,13.871-22.052c-7.368-8.049-16.626,12.013-16.626,12.013L447.792,67.618z"/>
	</g>
	<g>
		<path style="fill:#6876AA;" d="M407.934,112.558c1.02,1.01,2.09,1.98,3.2,2.89c4.71,3.86,10.19,6.81,16.18,8.59
			c0.68-19.51-4.005-31.167-4.005-31.167S411.134,100.761,407.934,112.558z"/>
	</g>
	<g>
		<g>
			<path d="M434.522,52.925c0,0,11.163-7.257,17.932,1.79c6.573,8.783,0.15,18.746,0.15,18.746l-15.189-11.842L434.522,52.925z"/>
		</g>
	</g>
	<g>
		<g>
			<path style="fill:#6876AA;" d="M411.134,115.448c8.04,6.58,18.32,10.53,29.53,10.53c11.82,0,22.62-4.4,30.83-11.66
				c0.32-4.9,0.15-8.93-0.73-11.25c-4.04-10.61-22.841-14.507-22.841-14.507s-12.926,0-18.132,1.462
				c-4.377,1.229-12.277,5.205-15.847,12.285C412.114,105.928,411.414,110.918,411.134,115.448z"/>
		</g>
	</g>
	<g>
		<g>
			<path style="fill:#F48462;" d="M448.242,78.945l0.476,10.438c0,0-1.746,3.086-7.829,3.861c-4.532,0.577-6.177-0.378-6.177-0.378
				l0.393-5.315l0.39-5.184l10.915-2.928L448.242,78.945z"/>
		</g>
	</g>
	<g>
		<g>
			<path d="M446.411,79.439c-0.014,0.286-0.106,0.628-0.257,1.021c-2.098,5.32-8.432,6.736-11.048,7.091l0.39-5.184L446.411,79.439z
				"/>
		</g>
	</g>
	<g>
		<g>
			<path style="fill:#F48462;" d="M432.083,58.681c0,0-4.881,13.336-2.39,20.509c2.491,7.172,9.069,5.617,12.961,3.964
				c3.892-1.654,5.589-4.206,5.589-4.206s3.793,1.033,6.067-2.575c2.274-3.608,0.501-7.482-1.676-8.262s-4.607,0.907-4.607,0.907
				l1.747-3.896C449.775,65.122,440.282,46.446,432.083,58.681z"/>
		</g>
	</g>
	<g>
		<g>
			<path d="M448.028,69.018c0,0-5.502,1.522-9.82-4.416c-4.318-5.938-4.142-8.514-4.142-8.514l-3.408,7.238
				c0,0-1.18-4.938,0.398-7.898c1.578-2.96,3.466-2.503,3.466-2.503l12.526,2.204l3.939,9.636L448.028,69.018z"/>
		</g>
	</g>
	<g>
		<path style="fill:#F7B369;" d="M446.906,98.906c-2.875,0-5.461-3.076-6.371-4.293c-1.228,1.124-4.611,4.043-6.894,3.948
			c-0.599-0.019-1.09-0.234-1.459-0.64c-1.064-1.171,1.055-4.107,2.015-5.315c0.133-0.166,0.358-0.231,0.559-0.161
			c8.968,3.17,13.797-3.176,13.998-3.447c0.116-0.157,0.313-0.233,0.502-0.193c0.19,0.039,0.342,0.184,0.387,0.373
			c0.058,0.239,1.385,5.883-0.224,8.425c-0.416,0.658-0.99,1.069-1.707,1.219C447.442,98.88,447.173,98.906,446.906,98.906z
			 M441.461,94.173c0.998,1.29,3.56,4.19,6.046,3.671c0.447-0.094,0.797-0.348,1.067-0.775c1.027-1.622,0.589-5.028,0.29-6.696
			C447.726,91.528,445.208,93.614,441.461,94.173z M434.765,93.506c-1.257,1.65-2.137,3.418-1.842,3.743
			c0.183,0.201,0.428,0.303,0.751,0.313c1.514,0.045,4.132-1.897,5.692-3.248C437.966,94.296,436.431,94.058,434.765,93.506z"/>
	</g>
	<g>
		<g>
			<path style="fill:#6876AA;" d="M466.924,117.878c1.6-1.09,3.13-2.28,4.57-3.56c1.55-1.36,3.01-2.83,4.36-4.39
				c0.33-0.38,0.65-0.76,0.97-1.15c-7.835-12.111-15.67-15.3-15.67-15.3S468.924,108.408,466.924,117.878z"/>
		</g>
	</g>
	<g>
		<g>
			<path style="fill:#F7B369;" d="M416.734,119.388c0.33,0.2,0.67,0.39,1.01,0.59c-0.13-1.71-0.1-3.7,0.22-5.93
				c1.35-9.17,8.42-12.33,8.49-12.36c0.24-0.1,0.36-0.39,0.25-0.63c-0.11-0.25-0.39-0.36-0.63-0.26c-0.32,0.14-7.64,3.41-9.06,13.11
				C416.714,115.938,416.654,117.778,416.734,119.388z"/>
		</g>
	</g>
	<g>
		<path d="M433.057,75.235c-0.209,0-0.404-0.132-0.475-0.342c-0.993-2.973,1.047-6.061,1.134-6.191
			c0.154-0.229,0.463-0.291,0.693-0.136c0.228,0.153,0.29,0.464,0.137,0.693c-0.019,0.028-1.851,2.815-1.015,5.317
			c0.087,0.262-0.055,0.545-0.316,0.632C433.162,75.227,433.109,75.235,433.057,75.235z"/>
	</g>
	<g>
		<path d="M448.86,75.235c-0.119,0-0.239-0.043-0.335-0.129c-0.205-0.185-0.222-0.501-0.036-0.706l3.681-4.078
			c0.186-0.205,0.501-0.222,0.706-0.036c0.205,0.185,0.222,0.501,0.036,0.706l-3.681,4.078
			C449.133,75.179,448.997,75.235,448.86,75.235z"/>
	</g>
	<g>
		<path d="M452.827,74.076c-0.021,0-0.043-0.001-0.064-0.004l-2.616-0.337c-0.274-0.036-0.468-0.286-0.433-0.56
			c0.035-0.274,0.29-0.465,0.56-0.432l2.616,0.337c0.275,0.036,0.468,0.286,0.433,0.56C453.29,73.892,453.074,74.076,452.827,74.076
			z"/>
	</g>
	<g>
		<path d="M430.657,63.826c-0.233,0-0.441-0.164-0.489-0.402c-0.055-0.271,0.121-0.534,0.392-0.588l1.895-0.379
			c0.258-0.055,0.533,0.121,0.588,0.392c0.055,0.271-0.121,0.534-0.393,0.588l-1.894,0.379
			C430.724,63.823,430.69,63.826,430.657,63.826z"/>
	</g>
	<g>
		<path d="M440.383,65.298c-0.072,0-0.146-0.016-0.215-0.048l-3.286-1.562c-0.249-0.119-0.355-0.417-0.236-0.667
			c0.118-0.25,0.418-0.355,0.666-0.237l3.286,1.562c0.249,0.119,0.355,0.417,0.236,0.666
			C440.749,65.193,440.569,65.298,440.383,65.298z"/>
	</g>
	<g>
		<path d="M431.228,69.634c-0.044,0-0.09-0.006-0.135-0.019c-0.266-0.074-0.421-0.35-0.347-0.616l0.634-2.267l-0.618-0.719
			c-0.181-0.21-0.156-0.525,0.053-0.705c0.211-0.18,0.526-0.156,0.705,0.053l0.793,0.922c0.109,0.127,0.147,0.3,0.103,0.461
			l-0.706,2.524C431.648,69.489,431.446,69.634,431.228,69.634z"/>
	</g>
	<g>
		<path d="M438.58,70.131c-0.044,0-0.09-0.006-0.135-0.019c-0.266-0.074-0.421-0.351-0.347-0.616l0.633-2.259l-0.909-1.009
			c-0.186-0.205-0.169-0.521,0.036-0.706c0.205-0.185,0.521-0.168,0.706,0.037l1.094,1.213c0.115,0.127,0.156,0.305,0.11,0.47
			l-0.707,2.524C439,69.986,438.799,70.131,438.58,70.131z"/>
	</g>
	<g>
		<path d="M434.696,78.66c-0.346,0-0.704-0.046-1.072-0.156c-0.265-0.079-0.415-0.357-0.337-0.622
			c0.078-0.264,0.354-0.414,0.622-0.336c1.89,0.563,3.623-1.167,3.64-1.185c0.196-0.196,0.511-0.198,0.707-0.004
			c0.196,0.193,0.199,0.509,0.006,0.706C438.188,77.139,436.667,78.66,434.696,78.66z"/>
	</g>
</g>
<g>
	<g>
		<path style="fill:#E8E1EF;" d="M363.029,321.333c0,9.24-2.69,17.86-7.33,25.1c-0.65,1.01-1.33,2-2.06,2.96
			c-0.38,0.51-0.78,1.01-1.18,1.5c-0.13,0.17-0.26,0.33-0.4,0.49c-0.86,1.02-1.77,2.01-2.71,2.95c-1.52,1.52-3.15,2.94-4.88,4.23
			c-0.05,0.04-0.1,0.07-0.15,0.11c-0.36,0.28-0.73,0.54-1.1,0.8c-0.44,0.32-0.89,0.62-1.35,0.92c-0.1,0.07-0.2,0.13-0.31,0.19
			c-1.26,0.82-2.57,1.58-3.92,2.26c-0.31,0.16-0.62,0.32-0.94,0.47c-1.45,0.7-2.94,1.33-4.46,1.88c-2.02,0.73-4.1,1.33-6.24,1.77
			c-3.1,0.65-6.3,0.99-9.59,0.99c-0.65,0-1.31-0.01-1.96-0.04c-0.75-0.03-1.49-0.08-2.23-0.15c-0.05,0-0.09-0.01-0.14-0.01
			c-0.64-0.06-1.28-0.13-1.92-0.22c-0.74-0.1-1.47-0.22-2.2-0.36c-0.78-0.14-1.55-0.3-2.31-0.48c-2.22-0.52-4.37-1.2-6.45-2.04
			c-1.81-0.71-3.56-1.54-5.26-2.48c-0.04-0.02-0.07-0.04-0.11-0.06c-0.2-0.11-0.4-0.22-0.59-0.34c-0.31-0.17-0.62-0.35-0.92-0.54
			c-0.3-0.17-0.6-0.35-0.89-0.54c-0.55-0.34-1.08-0.7-1.61-1.07c-0.95-0.65-1.88-1.35-2.78-2.09c-0.11-0.08-0.21-0.16-0.32-0.25
			c-1.27-1.06-2.49-2.18-3.65-3.36c-0.33-0.33-0.65-0.67-0.96-1.01c-0.74-0.79-1.45-1.62-2.11-2.46c-0.05-0.06-0.1-0.12-0.15-0.18
			c-0.1-0.12-0.19-0.23-0.28-0.35c-0.02-0.02-0.03-0.04-0.04-0.06c-0.78-1-1.51-2.03-2.2-3.09c-4.77-7.32-7.55-16.05-7.55-25.44
			c0-25.75,20.88-46.62,46.63-46.62S363.029,295.583,363.029,321.333z"/>
	</g>
	<g>
		<path d="M336.561,332.921c0,0-0.821-44.408-16.529-46.009c-15.708-1.601-17.569,9.437-17.569,9.437s-3.915,1.395-4.708,7.366
			c-0.793,5.971-1.164,29.789-1.164,29.789l35.47,2.03L336.561,332.921z"/>
	</g>
	<g>
		<path style="fill:#6876AA;" d="M353.639,349.393c-0.38,0.51-0.78,1.01-1.18,1.5c-0.13,0.17-0.26,0.33-0.4,0.49
			c-0.86,1.02-1.77,2.01-2.71,2.95c-1.52,1.52-3.15,2.94-4.88,4.23c-0.05,0.04-0.1,0.07-0.15,0.11c-0.36,0.28-0.73,0.54-1.1,0.8
			c-0.44,0.32-0.89,0.62-1.35,0.92c-0.1,0.07-0.2,0.13-0.31,0.19c-1.26,0.82-2.57,1.58-3.92,2.26c-0.31,0.16-0.62,0.32-0.94,0.47
			c-1.45,0.7-2.94,1.33-4.46,1.88c-2.02,0.73-4.1,1.33-6.24,1.77c-3.1,0.65-6.3,0.99-9.59,0.99c-0.65,0-1.31-0.01-1.96-0.04
			c-0.75-0.03-1.49-0.08-2.23-0.15c-0.05,0-0.09-0.01-0.14-0.01c-0.64-0.06-1.28-0.13-1.92-0.22c-0.74-0.1-1.47-0.22-2.2-0.36
			c-0.78-0.14-1.55-0.3-2.31-0.48c-2.22-0.52-4.37-1.2-6.45-2.04c-1.81-0.71-3.56-1.54-5.26-2.48c-0.04-0.02-0.07-0.04-0.11-0.06
			c-0.2-0.11-0.4-0.22-0.59-0.34c-0.31-0.17-0.62-0.35-0.92-0.54c-2.97-11.8-4.15-22.47-0.45-26.82c0.18-0.24,0.41-0.46,0.64-0.66
			c0.87-0.76,1.81-1.44,2.78-2.08c0.04-0.02,0.07-0.04,0.1-0.06c1.62-1.05,3.36-1.96,5.19-2.73c0.02-0.02,0.05-0.03,0.06-0.03
			c11.79-4.91,26.99-4.09,35.28-0.63C340.879,330.283,348.479,340.713,353.639,349.393z"/>
	</g>
	<g>
		<g>
			<g>
				<g>
					<path style="fill:#F48462;" d="M309.16,317.012l0,10.907c0,0,1.967,3.135,8.348,3.654c4.753,0.387,6.259-2.055,6.259-2.055
						l-1.151-9.545l-11.522-2.535L309.16,317.012z"/>
				</g>
			</g>
		</g>
	</g>
	<g>
		<g>
			<g>
				<g>
					<path d="M309.177,316.347c0.028,0.298,0.141,0.649,0.317,1.052c2.44,5.449,11.029,7.716,13.774,7.962l-0.653-5.387
						L309.177,316.347z"/>
				</g>
			</g>
		</g>
	</g>
	<g>
		<g>
			<path style="fill:#FFFFFF;" d="M343.818,354.993l-0.501,4.47c-0.347,0.27-0.703,0.52-1.06,0.771l0.607-5.347
				c0.751-6.725-2.592-15.058-2.63-15.145c-0.096-0.251,0.019-0.53,0.27-0.626c0.25-0.106,0.52,0.019,0.626,0.26
				C341.265,339.732,344.598,348.027,343.818,354.993z"/>
		</g>
	</g>
	<g>
		<g>
			<g>
				<g>
					<path style="fill:#F48462;" d="M325.048,295.113c0,0,5.724,13.676,3.467,21.274c-2.257,7.598-9.191,6.289-13.328,4.749
						c-4.137-1.54-6.028-4.121-6.028-4.121s-3.906,1.257-6.449-2.397c-2.543-3.654-0.878-7.779,1.355-8.695
						c2.234-0.916,4.847,0.727,4.847,0.727l-2.007-3.98C306.905,302.669,315.918,282.743,325.048,295.113z"/>
				</g>
			</g>
		</g>
	</g>
	<g>
		<path d="M324.162,312.43c-0.053,0-0.105-0.008-0.158-0.025c-0.262-0.088-0.403-0.371-0.316-0.633
			c0.817-2.444-0.974-5.168-0.991-5.195c-0.153-0.229-0.092-0.54,0.137-0.693c0.23-0.154,0.539-0.092,0.693,0.137
			c0.086,0.127,2.084,3.153,1.11,6.068C324.566,312.298,324.371,312.43,324.162,312.43z"/>
	</g>
	<g>
		<path d="M308.202,313.073c-0.137,0-0.272-0.056-0.371-0.165l-3.603-3.991c-0.186-0.205-0.169-0.521,0.036-0.706
			c0.204-0.185,0.522-0.169,0.706,0.036l3.603,3.991c0.186,0.205,0.169,0.521-0.036,0.706
			C308.441,313.03,308.321,313.073,308.202,313.073z"/>
	</g>
	<g>
		<path d="M304.319,311.94c-0.247,0-0.463-0.184-0.495-0.437c-0.035-0.273,0.158-0.524,0.433-0.56l2.561-0.33
			c0.267-0.038,0.524,0.157,0.56,0.433c0.035,0.273-0.158,0.524-0.433,0.56l-2.561,0.33
			C304.362,311.939,304.341,311.94,304.319,311.94z"/>
	</g>
	<g>
		<path d="M327.058,301.373c-0.033,0-0.065-0.003-0.099-0.01l-2.401-0.48c-0.271-0.054-0.446-0.317-0.393-0.588
			c0.055-0.272,0.32-0.445,0.588-0.393l2.401,0.48c0.272,0.054,0.446,0.317,0.393,0.588
			C327.499,301.209,327.291,301.373,327.058,301.373z"/>
	</g>
	<g>
		<path d="M316.992,302.705c-0.186,0-0.366-0.105-0.451-0.285c-0.119-0.25-0.013-0.548,0.236-0.666l3.217-1.528
			c0.248-0.119,0.548-0.013,0.666,0.236c0.119,0.25,0.013,0.548-0.236,0.666l-3.217,1.528
			C317.138,302.69,317.064,302.705,316.992,302.705z"/>
	</g>
	<g>
		<path d="M325.953,306.948c-0.219,0-0.42-0.145-0.481-0.365l-0.691-2.471c-0.045-0.161-0.007-0.334,0.103-0.461l0.776-0.902
			c0.18-0.209,0.495-0.232,0.705-0.053c0.209,0.18,0.233,0.496,0.053,0.705l-0.602,0.699l0.619,2.213
			c0.074,0.266-0.081,0.542-0.347,0.616C326.043,306.942,325.997,306.948,325.953,306.948z"/>
	</g>
	<g>
		<path d="M318.112,307.435c-0.219,0-0.42-0.145-0.481-0.365l-0.692-2.471c-0.046-0.165-0.005-0.343,0.11-0.47l1.071-1.188
			c0.186-0.204,0.501-0.22,0.706-0.036c0.205,0.185,0.222,0.501,0.036,0.706l-0.887,0.983l0.617,2.205
			c0.074,0.266-0.081,0.542-0.347,0.616C318.202,307.429,318.156,307.435,318.112,307.435z"/>
	</g>
	<g>
		<path d="M328.968,299.97c0,0-3.768-0.752-6.411-0.653c-2.643,0.099-2.643,0.099-2.643,0.099l-1.073-4.251l0.014,4.637
			c0,0-1.866,0.32-3.713,1.286c-1.847,0.966-3.073,2.156-3.073,2.156l-1.752-3.576l0.738,4.502l-2.142,2.479l-3.232-3.027
			l2.07-6.275c0,0,4.878-6.81,5.254-6.892c0.376-0.081,7.41-0.469,7.41-0.469s6.052,2.365,6.198,2.564
			C326.758,292.751,328.968,299.97,328.968,299.97z"/>
	</g>
	<g>
		<path style="fill:#FFFFFF;" d="M318.355,331.734c-2.773,0-6.228-0.748-9.934-3.31c-0.228-0.157-0.284-0.469-0.127-0.695
			c0.156-0.229,0.468-0.285,0.695-0.127c8.335,5.759,15.033,1.953,15.314,1.787c0.24-0.142,0.543-0.061,0.685,0.177
			c0.14,0.238,0.061,0.544-0.177,0.685C324.769,330.276,322.226,331.734,318.355,331.734z"/>
	</g>
	<g>
		<path style="fill:#6876AA;" d="M310.159,367.533c-0.74-0.1-1.47-0.22-2.2-0.36c-0.78-0.14-1.55-0.3-2.31-0.48
			c-2.22-0.52-4.37-1.2-6.45-2.04c-1.81-0.71-3.56-1.54-5.26-2.48c-0.04-0.02-0.07-0.04-0.11-0.06c-0.2-0.11-0.4-0.22-0.59-0.34
			c-0.61-0.34-1.22-0.7-1.81-1.08c-0.55-0.34-1.08-0.7-1.61-1.07c-0.95-0.65-1.88-1.35-2.78-2.09c-0.11-0.08-0.21-0.16-0.32-0.25
			c-1.27-1.06-2.49-2.18-3.65-3.36c-0.33-0.33-0.65-0.67-0.96-1.01c-0.74-0.79-1.45-1.62-2.11-2.46c-0.05-0.06-0.1-0.12-0.15-0.18
			c3.07-7.16,6.92-11.94,10.35-15.07c1.22-1.12,2.37-2.01,3.42-2.75c0.04-0.01,0.07-0.03,0.1-0.05c2.74-1.88,4.77-2.6,5.19-2.73
			c0.02-0.02,0.05-0.03,0.06-0.03C298.989,329.643,310.159,367.533,310.159,367.533z"/>
	</g>
	<g>
		<path d="M322.733,316.589c-1.078,0-2.409-1.056-2.85-1.434c-0.16-0.138-0.217-0.36-0.143-0.558
			c0.075-0.197,0.289-0.315,0.477-0.322l4.446,0.081c0.199,0.004,0.377,0.125,0.453,0.31c0.076,0.184,0.036,0.396-0.103,0.538
			c-0.028,0.029-0.708,0.725-1.667,1.24C323.16,316.545,322.952,316.589,322.733,316.589z M321.873,315.306
			c0.442,0.23,0.829,0.351,1.002,0.258c0.137-0.074,0.269-0.152,0.392-0.232L321.873,315.306z"/>
	</g>
</g>
<g>
	<g>
		<path style="fill:#E8E1EF;" d="M239.385,321.333c0,4.14-0.54,8.16-1.56,11.98c-2.38,8.97-7.36,16.88-14.1,22.86
			c-0.44,0.4-0.9,0.79-1.36,1.17c-0.75,0.63-1.52,1.23-2.32,1.79c-0.98,0.72-1.99,1.39-3.03,2.02c-0.82,0.5-1.65,0.98-2.5,1.43
			c-0.24,0.13-0.48,0.25-0.73,0.37c-0.37,0.18-0.73,0.37-1.1,0.54c-6.04,2.86-12.8,4.46-19.92,4.46c-2.58,0-5.11-0.21-7.58-0.62
			c-1.77-0.28-3.5-0.67-5.2-1.15c-5.43-1.54-10.44-4.04-14.86-7.3c-0.17-0.12-0.34-0.24-0.5-0.37c-1.09-0.83-2.14-1.71-3.16-2.63
			c-1.71-1.54-3.31-3.22-4.77-5c-0.21-0.26-0.42-0.52-0.63-0.79c-0.28-0.36-0.56-0.72-0.82-1.09c-5.72-7.74-9.1-17.31-9.1-27.67
			c0-25.75,20.87-46.62,46.62-46.62S239.385,295.583,239.385,321.333z"/>
	</g>
	<g>
		<path style="fill:#A37B90;" d="M221.005,358.363c-0.32,0.26-0.64,0.52-0.96,0.77c-0.98,0.72-1.99,1.39-3.03,2.02
			c-0.82,0.5-1.65,0.98-2.5,1.43c-0.24,0.13-0.48,0.25-0.73,0.37c-0.37,0.18-0.73,0.37-1.1,0.54c-6.04,2.86-12.8,4.46-19.92,4.46
			c-2.58,0-5.11-0.21-7.58-0.62c-1.77-0.28-3.5-0.67-5.2-1.15c-5.43-1.54-10.44-4.04-14.86-7.3c-0.17-0.12-0.34-0.24-0.5-0.37
			c-1.09-0.83-2.14-1.71-3.16-2.63c-1.71-1.54-3.31-3.22-4.77-5c-0.21-0.26-0.42-0.52-0.63-0.79c3.02-4.58,8.05-10.33,15.53-13.34
			c2.1-0.83,4.36-1.45,6.82-1.77c0.15-0.02,0.28-0.04,0.43-0.05c0.22-0.03,0.44-0.05,0.66-0.07c0.02-0.01,0.03-0.01,0.05-0.01
			c0.19-0.01,0.37-0.02,0.56-0.03c0.29-0.02,0.57-0.04,0.82-0.05c0.61-0.05,1.23-0.1,1.82-0.12c16.83-0.65,25.79,6.03,26.31,6.43
			c0.05,0.03,0.08,0.07,0.11,0.11c0.17,0.18,0.57,0.62,1.16,1.3C212.535,345.033,217.225,350.863,221.005,358.363z"/>
	</g>
	<g>
		<path d="M185.865,311.896c0,0,3.812-0.942,5.599-3.137c1.787-2.194,2.081-7.621,2.081-7.621s6.903,3.591,8.717,3.192
			c1.814-0.399,5.37-8.527,2.975-12.038c-2.395-3.511-7.242,0.836-7.242,0.836s-0.995-5.016-6.294-3.845
			c-6.221,1.374-7.83,7.691-7.83,7.691s-0.418-6.855-4.746-3.845c-4.328,3.009-2.77,10.867-2.77,10.867s-3.462,1.502-2.77,4.764
			c0.692,3.262,5.367,6.401,5.367,6.401L185.865,311.896z"/>
	</g>
	<g>
		<g>
			<path style="fill:#F48462;" d="M185.247,321.736l-0.907,10.336c0,0,1.669,3.129,7.887,4.133c4.632,0.748,6.36-0.136,6.36-0.136
				l-0.191-5.288l-0.193-5.157l-11.095-3.327L185.247,321.736z"/>
		</g>
	</g>
	<g>
		<g>
			<path d="M187.108,322.297c0.002,0.284,0.084,0.627,0.223,1.023c1.942,5.359,8.391,7.008,11.064,7.462l-0.193-5.157
				L187.108,322.297z"/>
		</g>
	</g>
	<g>
		<g>
			<path style="fill:#F48462;" d="M202.657,302.259c0,0,4.48,13.419,1.633,20.438s-9.541,5.222-13.473,3.43
				c-3.931-1.791-5.573-4.389-5.573-4.389s-3.938,0.878-6.129-2.789c-2.191-3.667-0.215-7.442,2.053-8.131
				c2.268-0.689,4.696,1.078,4.696,1.078l-1.638-3.932C184.226,307.964,194.726,289.805,202.657,302.259z"/>
		</g>
	</g>
	<g>
		<path d="M185.015,317.532c-0.112,0-0.225-0.037-0.318-0.114l-4.528-3.743c-0.213-0.177-0.243-0.491-0.067-0.704
			c0.175-0.214,0.489-0.244,0.704-0.067l4.528,3.743c0.213,0.177,0.243,0.491,0.067,0.704
			C185.302,317.471,185.159,317.532,185.015,317.532z"/>
	</g>
	<g>
		<path d="M193.33,307.952c-0.124,0-0.248-0.046-0.344-0.138c-0.2-0.19-0.209-0.506-0.019-0.706c1.638-1.729,3.581-1.228,4.38-0.723
			c0.233,0.148,0.303,0.457,0.155,0.69c-0.147,0.233-0.454,0.303-0.688,0.156c-0.067-0.041-1.649-0.989-3.122,0.564
			C193.595,307.899,193.462,307.952,193.33,307.952z"/>
	</g>
	<g>
		<path d="M203.673,307.43c-0.124,0-0.247-0.045-0.343-0.137c-1.016-0.96-2.221-0.434-2.272-0.41
			c-0.251,0.111-0.547,0.003-0.661-0.248c-0.114-0.25-0.007-0.545,0.243-0.66c0.075-0.034,1.862-0.841,3.377,0.592
			c0.201,0.189,0.21,0.506,0.02,0.707C203.939,307.377,203.806,307.43,203.673,307.43z"/>
	</g>
	<g>
		<path d="M200.115,317.115c-0.063,0-0.126-0.012-0.188-0.037c-0.256-0.103-0.379-0.396-0.275-0.651
			c1.402-3.447-0.197-4.688-0.266-4.739c-0.22-0.163-0.27-0.475-0.109-0.696c0.162-0.222,0.468-0.273,0.69-0.118
			c0.096,0.068,2.33,1.705,0.612,5.931C200.499,316.998,200.312,317.115,200.115,317.115z"/>
	</g>
	<g>
		<path d="M203.189,312.392c-0.235,0-0.445-0.167-0.491-0.406l-0.462-2.425c-0.052-0.271,0.127-0.533,0.398-0.585
			c0.278-0.05,0.533,0.127,0.585,0.397l0.462,2.425c0.052,0.271-0.127,0.533-0.398,0.585
			C203.252,312.389,203.22,312.392,203.189,312.392z"/>
	</g>
	<g>
		<path d="M195.435,312.392c-0.235,0-0.445-0.167-0.491-0.406l-0.461-2.425c-0.052-0.271,0.126-0.533,0.398-0.585
			c0.271-0.05,0.534,0.127,0.584,0.397l0.462,2.425c0.052,0.271-0.126,0.533-0.398,0.585
			C195.498,312.389,195.466,312.392,195.435,312.392z"/>
	</g>
	<g>
		<path d="M197.988,321.013c-0.226,0-2.87-0.055-3.815-2.528c-0.099-0.258,0.03-0.547,0.288-0.646
			c0.259-0.099,0.547,0.03,0.646,0.288c0.723,1.892,2.834,1.905,2.883,1.886c0.315-0.022,0.502,0.219,0.505,0.494
			c0.003,0.276-0.218,0.503-0.495,0.506C197.997,321.013,197.993,321.013,197.988,321.013z"/>
	</g>
	<g>
		<path d="M185.865,311.896c0,0,4.088-0.711,5.599-4.055c1.511-3.344,1.289-6.353,1.289-6.353s2.064,2.262,5.644,1.883
			c3.58-0.379,4.563-4.057,4.563-4.057l-3.281-3.845c0,0-13.479,2.844-13.814,2.425c-0.335-0.419-5.239,8.324-5.239,8.324
			L185.865,311.896z"/>
	</g>
	<g>
		<path style="fill:#A37B90;" d="M212.685,363.493c-6.04,2.86-12.8,4.46-19.92,4.46c-2.58,0-5.11-0.21-7.58-0.62
			c-1.77-0.28-3.5-0.67-5.2-1.15c-5.43-1.54-10.44-4.04-14.86-7.3c1.86-11.23,3.82-20.44,5.34-21.48c0.35-0.23,0.73-0.45,1.13-0.65
			c2.07-1.01,4.66-1.52,6.82-1.77c0.15-0.02,0.28-0.04,0.43-0.05c0.22-0.03,0.44-0.05,0.66-0.07c0.2-0.01,0.41-0.02,0.61-0.04
			c0.29-0.02,0.57-0.04,0.82-0.05c1.11-0.06,1.81-0.05,1.81-0.05s0-0.02,0.01-0.07c0.05-0.64,0.49-5.64,1.85-5.53
			c1.44,0.12,4.94,2.53,8.64,2.83c3.71,0.3,5.69-0.03,6.43-0.03c0.75,0,0.9,3.96,0.9,3.96s4.97,1.69,8.49,5.2
			c0.05,0.03,0.08,0.07,0.11,0.11c0.17,0.18,0.57,0.62,1.16,1.3c0.45,0.57,0.84,1.16,1.17,1.8
			C212.525,346.283,212.785,354.133,212.685,363.493z"/>
	</g>
	<g>
		<path style="fill:#FFFFFF;" d="M190.601,336.867c-3.431,0-7.805-1.597-8.022-1.677c-0.259-0.095-0.392-0.383-0.296-0.642
			c0.096-0.26,0.384-0.392,0.642-0.296c0.06,0.022,6.032,2.205,9.189,1.465c0.27-0.064,0.538,0.105,0.6,0.374
			c0.063,0.269-0.105,0.538-0.374,0.601C191.812,336.815,191.221,336.867,190.601,336.867z"/>
	</g>
	<g>
		<path d="M180.626,317.44c-0.179,0-0.352-0.096-0.441-0.265c-0.13-0.243-0.038-0.546,0.205-0.677l2.599-1.389
			c0.244-0.13,0.547-0.038,0.677,0.206c0.13,0.243,0.038,0.546-0.205,0.677l-2.599,1.389
			C180.786,317.422,180.706,317.44,180.626,317.44z"/>
	</g>
	<g>
		<path style="fill:#6876AA;" d="M195.996,315.21h-2.307c-1.581,0-2.867-1.287-2.867-2.868v-2.393c0-0.758,0.617-1.375,1.375-1.375
			h5.291c0.758,0,1.375,0.617,1.375,1.375v2.393C198.863,313.923,197.577,315.21,195.996,315.21z M192.197,309.574
			c-0.207,0-0.375,0.168-0.375,0.375v2.393c0,1.03,0.837,1.868,1.867,1.868h2.307c1.03,0,1.867-0.838,1.867-1.868v-2.393
			c0-0.207-0.169-0.375-0.375-0.375H192.197z"/>
	</g>
	<g>
		<path style="fill:#6876AA;" d="M204.948,315.329h-1.57c-1.471,0-2.668-1.197-2.668-2.668v-2.666c0-0.717,0.584-1.301,1.302-1.301
			h4.303c0.718,0,1.302,0.584,1.302,1.301v2.666C207.616,314.132,206.419,315.329,204.948,315.329z M202.012,309.694
			c-0.167,0-0.302,0.135-0.302,0.301v2.666c0,0.92,0.748,1.668,1.668,1.668h1.57c0.92,0,1.668-0.748,1.668-1.668v-2.666
			c0-0.166-0.135-0.301-0.302-0.301H202.012z"/>
	</g>
	<g>
		<path style="fill:#6876AA;" d="M197.585,312.392c-0.183,0-0.358-0.101-0.447-0.274c-0.124-0.245-0.028-0.545,0.218-0.671
			c0.082-0.041,2.04-1.023,4.042-0.207c0.256,0.104,0.379,0.396,0.275,0.651c-0.105,0.257-0.396,0.379-0.652,0.274
			c-1.572-0.641-3.196,0.164-3.212,0.173C197.737,312.374,197.661,312.392,197.585,312.392z"/>
	</g>
	<g>
		<path style="fill:#6876AA;" d="M181.914,311.179c-0.198,0-0.386-0.118-0.464-0.314c-0.103-0.257,0.021-0.548,0.278-0.65
			c5.339-2.144,9.635-0.074,9.816,0.016c0.247,0.122,0.348,0.422,0.227,0.669c-0.122,0.247-0.422,0.35-0.669,0.228
			c-0.041-0.019-4.091-1.953-9.001,0.016C182.039,311.167,181.976,311.179,181.914,311.179z"/>
	</g>
</g>
<g>
	<g>
		<path style="fill:#E8E1EF;" d="M518.449,78.704c0,8.9,2.5,17.22,6.82,24.3c0.75,1.23,1.56,2.41,2.41,3.56
			c3.13,4.18,6.93,7.82,11.26,10.76c5.72,3.88,12.34,6.51,19.49,7.53c1.87,0.27,3.77,0.42,5.71,0.45c0.31,0.02,0.62,0.02,0.93,0.02
			c3.76,0,7.43-0.45,10.93-1.29c9.58-2.3,18.01-7.56,24.26-14.76c0.95-1.1,1.86-2.24,2.71-3.42c5.49-7.65,8.72-17.03,8.72-27.15
			c0-25.75-20.87-46.62-46.62-46.62S518.449,52.954,518.449,78.704z"/>
	</g>
	<g>
		<path d="M571.7,61.831c0,0,13.258-4.61,14.927,9.064c1.668,13.673-19.207,19.331-22.278,7.408S571.7,61.831,571.7,61.831z"/>
	</g>
	<g>
		<path style="fill:#F7B369;" d="M527.679,106.564c3.13,4.18,6.93,7.82,11.26,10.76c5.72,3.88,12.34,6.51,19.49,7.53l5.8-12.43
			l5.06-10.85l2.44-6.34l2.7-7.02l-3.81-0.44l-2.24-0.26l-5.81-0.68l-6.68-0.78c0,0-16.87,1.52-26.55,17.44
			C528.789,104.404,528.239,105.434,527.679,106.564z"/>
	</g>
	<g>
		<path style="fill:#7772D3;" d="M538.939,117.324c5.72,3.88,12.34,6.51,19.49,7.53c1.87,0.27,3.77,0.42,5.71,0.45
			c0.31,0.02,0.62,0.02,0.93,0.02c3.76,0,7.43-0.45,10.93-1.29l-4.27-28.8l-1.11-7.46l-0.41-2.79l-0.55,0.13l-7.09,1.72l-6.95,1.68
			C555.619,88.514,541.369,96.704,538.939,117.324z"/>
	</g>
	<g>
		<path d="M550.382,69.624c0,0-3.865-3.989-3.008-10.404c0.58-4.349,2.457-5.814,2.457-5.814s-3.132-5.803,5.605-5.742
			c8.737,0.061,14.017,4.17,14.017,4.17s3.922-2.094,5.868,2.495c1.947,4.589,0.391,11.511,0.391,11.511L550.382,69.624z"/>
	</g>
	<g>
		<g>
			<g>
				<g>
					<path style="fill:#F48462;" d="M569.78,76.162l0.095,10.66c0,0-1.895,3.081-8.127,3.644c-4.642,0.419-6.134-1.954-6.134-1.954
						l1.042-9.338l11.238-2.577L569.78,76.162z"/>
				</g>
			</g>
		</g>
	</g>
	<g>
		<g>
			<g>
				<g>
					<path d="M569.758,75.512c-0.024,0.291-0.132,0.636-0.301,1.031c-2.338,5.346-10.712,7.637-13.393,7.901l0.592-5.271
						L569.758,75.512z"/>
				</g>
			</g>
		</g>
	</g>
	<g>
		<g>
			<g>
				<g>
					<path style="fill:#F48462;" d="M554.063,54.897c0,0-5.475,13.415-3.204,20.821c2.272,7.406,9.037,6.066,13.067,4.526
						c4.03-1.541,5.856-4.08,5.856-4.08s3.829,1.195,6.282-2.398c2.454-3.593,0.791-7.61-1.4-8.486
						c-2.191-0.876-4.731,0.752-4.731,0.752l1.927-3.907C571.86,62.125,562.879,42.729,554.063,54.897z"/>
				</g>
			</g>
		</g>
	</g>
	<g>
		<g>
			<g>
				<g>
					<path d="M569.933,66.032c0,0-5.667,1.346-9.847-4.87c-4.18-6.215-3.905-8.835-3.905-8.835l-3.727,6.69
						c0,0-1.038-4.515,0.682-7.475c1.719-2.959,3.627-2.423,3.627-2.423l12.688,2.716l3.656,9.972L569.933,66.032z"/>
				</g>
			</g>
		</g>
	</g>
	<g>
		<path d="M555.074,71.825c-0.208,0-0.401-0.13-0.473-0.337c-0.979-2.846,0.951-5.825,1.033-5.95
			c0.153-0.231,0.461-0.294,0.692-0.143c0.23,0.151,0.295,0.462,0.144,0.692c-0.018,0.027-1.741,2.7-0.924,5.076
			c0.09,0.261-0.049,0.545-0.31,0.635C555.183,71.816,555.128,71.825,555.074,71.825z"/>
	</g>
	<g>
		<path d="M570.678,72.316c-0.118,0-0.236-0.042-0.332-0.126c-0.206-0.183-0.226-0.499-0.042-0.706l3.486-3.932
			c0.183-0.209,0.498-0.226,0.706-0.042c0.206,0.183,0.226,0.499,0.042,0.705l-3.486,3.932
			C570.953,72.259,570.815,72.316,570.678,72.316z"/>
	</g>
	<g>
		<path d="M574.463,71.173c-0.021,0-0.04-0.001-0.061-0.003l-2.505-0.3c-0.274-0.033-0.47-0.282-0.437-0.556
			c0.033-0.274,0.292-0.463,0.556-0.437l2.505,0.3c0.274,0.033,0.47,0.282,0.436,0.556
			C574.928,70.987,574.712,71.173,574.463,71.173z"/>
	</g>
	<g>
		<path d="M552.149,61.044c-0.231,0-0.439-0.162-0.488-0.397c-0.057-0.271,0.116-0.536,0.387-0.592l2.342-0.49
			c0.272-0.056,0.536,0.117,0.592,0.387c0.057,0.271-0.116,0.536-0.387,0.592l-2.342,0.49
			C552.218,61.041,552.184,61.044,552.149,61.044z"/>
	</g>
	<g>
		<path d="M561.998,62.259c-0.071,0-0.143-0.015-0.211-0.046l-3.143-1.459c-0.25-0.116-0.358-0.413-0.242-0.664
			c0.115-0.252,0.414-0.359,0.664-0.243l3.143,1.459c0.25,0.116,0.358,0.414,0.242,0.664
			C562.367,62.152,562.187,62.259,561.998,62.259z"/>
	</g>
	<g>
		<path d="M552.335,66.491c-0.043,0-0.087-0.005-0.131-0.017c-0.267-0.072-0.424-0.347-0.352-0.613l0.584-2.162l-0.59-0.673
			c-0.182-0.208-0.161-0.524,0.047-0.706c0.207-0.181,0.523-0.162,0.705,0.046l0.767,0.875c0.11,0.126,0.15,0.298,0.107,0.46
			l-0.654,2.42C552.758,66.345,552.556,66.491,552.335,66.491z"/>
	</g>
	<g>
		<path d="M559.061,66.907c-0.043,0-0.087-0.005-0.131-0.017c-0.267-0.072-0.424-0.347-0.352-0.613l0.582-2.155l-0.87-0.949
			c-0.187-0.203-0.174-0.52,0.03-0.706c0.203-0.186,0.52-0.173,0.706,0.03l1.057,1.151c0.116,0.126,0.159,0.303,0.114,0.468
			l-0.654,2.42C559.483,66.761,559.281,66.907,559.061,66.907z"/>
	</g>
	<g>
		<path style="fill:#FFFFFF;" d="M560.54,91.063c-1.952,0-3.885-0.559-5.307-2.228c-0.179-0.21-0.153-0.525,0.057-0.705
			c0.209-0.179,0.524-0.155,0.705,0.056c3.696,4.337,11.986-0.259,12.07-0.306c0.236-0.135,0.544-0.052,0.681,0.19
			c0.136,0.241,0.051,0.546-0.19,0.681C568.311,88.891,564.387,91.063,560.54,91.063z"/>
	</g>
	<g>
		<path style="fill:#7772D3;" d="M550.353,71.439c-2.143,0-3.949-1.915-4.066-4.355c-0.059-1.201,0.298-2.353,1.001-3.243
			c0.72-0.911,1.715-1.441,2.802-1.494c1.098-0.059,2.129,0.38,2.933,1.218c0.786,0.819,1.25,1.932,1.307,3.133
			c0.059,1.201-0.298,2.353-1.001,3.243c-0.72,0.911-1.715,1.441-2.802,1.494C550.467,71.438,550.409,71.439,550.353,71.439z
			 M550.264,63.343c-0.042,0-0.084,0.001-0.126,0.003c-0.795,0.038-1.528,0.434-2.065,1.114c-0.555,0.701-0.834,1.616-0.788,2.576
			c0.095,1.955,1.569,3.485,3.192,3.4c0.795-0.038,1.528-0.434,2.065-1.115c0.555-0.701,0.834-1.616,0.788-2.575
			c-0.046-0.96-0.412-1.844-1.03-2.488C551.732,63.665,551.013,63.343,550.264,63.343z"/>
	</g>
	<g>
		<path style="fill:#7772D3;" d="M560.381,71.634c-1.132,0-2.209-0.415-3.053-1.182c-0.899-0.817-1.427-1.936-1.484-3.149
			c-0.121-2.505,1.819-4.642,4.324-4.762c2.518-0.118,4.643,1.82,4.763,4.326c0.12,2.506-1.821,4.642-4.326,4.762
			C560.53,71.632,560.456,71.634,560.381,71.634z M560.388,63.536c-0.057,0-0.114,0.002-0.172,0.004
			c-1.954,0.094-3.468,1.761-3.374,3.715c0.046,0.947,0.457,1.819,1.158,2.457c0.702,0.637,1.611,0.963,2.557,0.917
			c1.955-0.093,3.469-1.76,3.376-3.715C563.841,65.018,562.268,63.536,560.388,63.536z"/>
	</g>
	<g>
		<path style="fill:#7772D3;" d="M554.095,66.919c-0.151,0-0.301-0.068-0.399-0.199c-0.166-0.22-0.122-0.534,0.098-0.7
			c0.938-0.709,2.581-0.247,2.767-0.192c0.265,0.079,0.415,0.356,0.337,0.621c-0.078,0.265-0.357,0.416-0.621,0.337
			c-0.512-0.15-1.474-0.274-1.879,0.031C554.306,66.886,554.2,66.919,554.095,66.919z"/>
	</g>
	<g>
		<path style="fill:#7772D3;" d="M564.432,67.391c-0.102,0-0.204-0.031-0.293-0.095c-0.224-0.162-0.274-0.475-0.112-0.698
			c1.531-2.118,7.498-2.072,8.172-2.061c0.276,0.005,0.496,0.233,0.491,0.509c-0.005,0.273-0.228,0.491-0.5,0.491
			c-1.695-0.026-6.312,0.208-7.353,1.646C564.739,67.319,564.586,67.391,564.432,67.391z"/>
	</g>
	<g>
		<path style="fill:#F7B369;" d="M564.229,112.424c-0.2,5-0.17,9.6-0.09,12.88c0.31,0.02,0.62,0.02,0.93,0.02
			c3.76,0,7.43-0.45,10.93-1.29c9.58-2.3,18.01-7.56,24.26-14.76c0.95-1.1,1.86-2.24,2.71-3.42
			c-16.81-20.49-33.11-21.05-33.11-21.05c-0.07,0.1-0.14,0.2-0.2,0.31c-0.47,0.72-0.89,1.52-1.28,2.4
			C565.619,93.724,564.569,103.674,564.229,112.424z"/>
	</g>
	<g>
		<path d="M556.527,75.318c-0.363,0-0.743-0.072-1.125-0.251c-0.25-0.117-0.358-0.415-0.241-0.665
			c0.118-0.251,0.417-0.357,0.665-0.24c1.265,0.592,2.67-0.728,2.684-0.742c0.199-0.188,0.516-0.185,0.706,0.015
			c0.19,0.199,0.186,0.514-0.014,0.706C559.141,74.2,557.961,75.318,556.527,75.318z"/>
	</g>
</g>
<g>
	<g>
		<path style="fill:#E8E1EF;" d="M21.515,321.338c0,7.08,1.58,13.78,4.4,19.79c7.44,15.85,23.55,26.83,42.22,26.83
			c16.05,0,30.2-8.1,38.59-20.44c5.07-7.46,8.04-16.47,8.04-26.18c0-25.75-20.88-46.63-46.63-46.63
			C42.395,274.708,21.515,295.588,21.515,321.338z"/>
	</g>
	<g>
		<path d="M100.354,348.066c0,0,7.622-2.293,5.304-13.437c-2-9.615-14.59-11.078-14.59-11.078s3.962-5.945,0.924-13.138
			c-2.917-6.906-6.979-8.217-6.979-8.217s0.346-5.598-4.066-9.991c-4.412-4.393-10.424,0.209-10.424,0.209
			s-11.405-2.483-18.442,3.573c-7.037,6.056-4.312,16.479-4.312,16.479s-11.203,4.045-13.928,15.887
			c-2.725,11.842,4.337,18.201,4.337,18.201L100.354,348.066z"/>
	</g>
	<g>
		<path style="fill:#F7B369;" d="M25.915,341.128c7.44,15.85,23.55,26.83,42.22,26.83c16.05,0,30.2-8.1,38.59-20.44
			c-8.09-10.77-18.18-18.58-30.64-19.68c-19.21-1.69-31.28,2.02-43.98,8.83C30.165,337.708,28.065,339.228,25.915,341.128z"/>
	</g>
	<g>
		<g>
			<g>
				<g>
					<path style="fill:#F48462;" d="M61.97,321.629l-0.492,7.784c0,0,2.792,2.666,6.545,2.938c5.069,0.366,7.103-2.311,7.103-2.311
						l0.436-10.251L61.97,321.629z"/>
				</g>
			</g>
		</g>
	</g>
	<g>
		<g>
			<g>
				<g>
					<path d="M61.971,321.618c0,0,2.104,7.552,8.42,5.97c4.56-1.143,5.106-6.969,5.106-6.969L61.971,321.618z"/>
				</g>
			</g>
		</g>
	</g>
	<g>
		<g>
			<g>
				<g>
					<path style="fill:#F48462;" d="M78.922,300.31c0,0,1.919,14.081-2.979,20.499c-4.897,6.419-10.676,4.137-13.203,1.962
						c-3.408-2.933-3.928-6.77-3.928-6.77s-4.946,0.704-6.358-3.376c-1.482-4.285,1.751-7.499,4.209-7.564
						c2.458-0.065,2.719,0.397,2.719,0.397l-0.471-4.516C58.912,300.943,74.702,285.228,78.922,300.31z"/>
				</g>
			</g>
		</g>
	</g>
	<g>
		<g>
			<g>
				<g>
					<path style="fill:#F48462;" d="M76.204,306.709c0,0,7.591-2.757,7.851,3.018c0.302,6.69-7.653,6.312-7.653,6.312
						L76.204,306.709z"/>
				</g>
			</g>
		</g>
	</g>
	<g>
		<path d="M58.163,305.834c0,0,2.526,1.221,8.205-2.468s4.355-8.492,4.355-8.492s7.207,5.086,8.559,11.022
			c1.351,5.936,3.164-13.605-5.33-13.691C65.458,292.119,52.475,296.939,58.163,305.834z"/>
	</g>
	<g>
		<path d="M79.591,312.965c-0.095,0-0.19-0.026-0.275-0.083c-0.23-0.151-0.294-0.462-0.142-0.692l2.709-4.105
			c0.152-0.231,0.461-0.296,0.693-0.142c0.23,0.151,0.294,0.462,0.142,0.692l-2.709,4.105
			C79.913,312.886,79.754,312.965,79.591,312.965z"/>
	</g>
	<g>
		<path d="M58.248,311.933c-0.125,0-0.249-0.046-0.346-0.139l-3.597-3.446c-0.2-0.191-0.207-0.508-0.015-0.707
			c0.191-0.2,0.508-0.206,0.707-0.016l3.597,3.446c0.2,0.191,0.207,0.508,0.015,0.707C58.511,311.881,58.38,311.933,58.248,311.933z
			"/>
	</g>
	<g>
		<path d="M54.729,312.337c-0.161,0-0.32-0.078-0.416-0.222c-0.154-0.229-0.092-0.54,0.138-0.694l2.321-1.553
			c0.228-0.152,0.54-0.091,0.693,0.138c0.154,0.23,0.092,0.54-0.138,0.694l-2.321,1.553
			C54.921,312.31,54.824,312.337,54.729,312.337z"/>
	</g>
	<g>
		<path d="M82.541,311.852c-0.037-0.001-2.15-0.153-2.15-0.153c-0.275-0.021-0.482-0.26-0.462-0.535
			c0.02-0.274,0.258-0.481,0.535-0.463l2.114,0.152c0.275,0.02,0.482,0.26,0.462,0.535C83.02,311.65,82.8,311.852,82.541,311.852z"
			/>
	</g>
	<g>
		<path d="M70.845,314.763c-0.036,0-0.073-0.004-0.109-0.012c-0.27-0.061-0.439-0.328-0.379-0.598
			c0.777-3.484-0.293-6.438-0.304-6.469c-0.096-0.258,0.036-0.546,0.295-0.643c0.26-0.094,0.546,0.035,0.643,0.294
			c0.049,0.131,1.188,3.25,0.342,7.036C71.281,314.604,71.074,314.763,70.845,314.763z"/>
	</g>
	<g>
		<path d="M68.961,318.619c-1.663,0-2.609-1.981-2.648-2.065c-0.078-0.167-0.059-0.362,0.051-0.51
			c0.109-0.147,0.292-0.22,0.474-0.197l4.772,0.698c0.192,0.028,0.351,0.165,0.407,0.352c0.056,0.185-0.002,0.388-0.146,0.517
			c-0.055,0.049-1.366,1.203-2.905,1.206C68.964,318.619,68.963,318.619,68.961,318.619z M67.817,317.001
			c0.309,0.333,0.706,0.618,1.144,0.618c0.414-0.001,0.818-0.123,1.168-0.28L67.817,317.001z"/>
	</g>
	<g>
		<path d="M75.803,303.534c-0.121,0-0.241-0.043-0.337-0.131c-0.747-0.683-2.173-0.709-2.188-0.709
			c-0.275-0.004-0.496-0.229-0.494-0.506c0.003-0.276,0.18-0.5,0.504-0.494c0.074,0.001,1.821,0.028,2.852,0.971
			c0.204,0.187,0.218,0.503,0.032,0.706C76.073,303.479,75.938,303.534,75.803,303.534z"/>
	</g>
	<g>
		<path d="M64.892,304.006c-0.13,0-0.261-0.051-0.359-0.151c-0.192-0.198-0.188-0.515,0.011-0.707
			c1.002-0.973,2.747-1.055,2.821-1.058c0.279,0.004,0.508,0.203,0.519,0.479c0.012,0.276-0.203,0.509-0.478,0.521
			c-0.014,0-1.44,0.07-2.166,0.774C65.143,303.959,65.018,304.006,64.892,304.006z"/>
	</g>
	<g>
		<path style="fill:#40507F;" d="M68.662,333.203c-5.538,0-7.679-3.119-7.768-3.252c-0.153-0.23-0.091-0.54,0.139-0.693
			c0.229-0.154,0.54-0.091,0.693,0.139c0.078,0.113,1.959,2.867,7.001,2.807c5.634-0.026,6.746-3.16,6.756-3.191
			c0.087-0.263,0.371-0.405,0.632-0.316c0.262,0.088,0.403,0.371,0.316,0.633c-0.052,0.157-1.357,3.846-7.7,3.875
			C68.709,333.203,68.685,333.203,68.662,333.203z"/>
	</g>
	<g>
		<path d="M79.282,305.896c0,0,6.681-8.474,1.664-13.692c-5.018-5.219-19.468-7.825-26.295,2.033
			c-4.84,6.989,3.512,11.597,3.512,11.597l9.283-9.523l3.278-1.437l5.481,1.437L79.282,305.896z"/>
	</g>
	<g>
		<path d="M65.304,308.818c-0.268,0-0.49-0.213-0.499-0.483l-0.081-2.404c-0.006-0.164,0.069-0.32,0.201-0.418l1.542-1.147
			c0.22-0.165,0.534-0.119,0.7,0.103c0.165,0.222,0.119,0.535-0.103,0.7l-1.332,0.991l0.072,2.143
			c0.009,0.275-0.207,0.507-0.482,0.517C65.315,308.818,65.31,308.818,65.304,308.818z"/>
	</g>
	<g>
		<path d="M74.1,308.818c-0.268,0-0.49-0.213-0.499-0.483l-0.081-2.404c-0.006-0.164,0.069-0.32,0.201-0.418l1.542-1.147
			c0.221-0.165,0.535-0.119,0.7,0.103c0.165,0.222,0.119,0.535-0.103,0.7l-1.332,0.991l0.072,2.143
			c0.009,0.275-0.206,0.507-0.482,0.517C74.112,308.818,74.106,308.818,74.1,308.818z"/>
	</g>
</g>
<g>
	<g>
		<path style="fill:#E8E1EF;" d="M611.339,320.619c0,9.05-2.58,17.5-7.04,24.65c-1.63,2.61-3.51,5.04-5.61,7.27
			c-8.5,9.05-20.58,14.7-33.97,14.7c-3.5,0-6.91-0.39-10.19-1.12c-4.61-1.02-8.97-2.74-12.96-5.03c-4.65-2.65-8.8-6.1-12.26-10.15
			c-0.75-0.88-1.47-1.78-2.16-2.71c-5.7-7.73-9.06-17.28-9.06-27.61c0-25.75,20.88-46.62,46.63-46.62
			C590.459,273.999,611.339,294.869,611.339,320.619z"/>
	</g>
	<g>
		<path style="fill:#A37B90;" d="M580.509,349.479l-25.98,16.64c-4.61-1.02-8.97-2.74-12.96-5.03c-4.65-2.65-8.8-6.1-12.26-10.15
			c3.83-8.43,11.8-20.78,26.52-24.93c3.26-0.92,6.14-0.83,8.66-0.03C576.529,329.789,580.509,349.479,580.509,349.479z"/>
	</g>
	<g>
		<path style="fill:#A37B90;" d="M604.299,345.269c-1.63,2.61-3.51,5.04-5.61,7.27c-8.5,9.05-20.58,14.7-33.97,14.7
			c-8.43,0-16.33-2.23-23.15-6.15c1.06-13.28,2.12-23.88,2.94-26.07c1.63-4.36,12.55-7.43,19.98-9.04c3.98-0.85,6.96-1.29,6.96-1.29
			s14.66,0.67,26.56,12.17C600.129,338.909,602.249,341.809,604.299,345.269z"/>
	</g>
	<g>
		<path d="M554.326,291.604c0,0-4.85,5.486-2.184,11.534c2.666,6.048,5.525-10.987,5.525-10.987L554.326,291.604z"/>
	</g>
	<g>
		<g>
			<path style="fill:#F48462;" d="M570.635,316.253l0.185,10.881c0,0-1.909,3.161-8.266,3.787c-4.736,0.466-6.42-0.578-6.42-0.578
				l0.568-5.522l0.561-5.385l11.452-2.723L570.635,316.253z"/>
		</g>
	</g>
	<g>
		<g>
			<path d="M568.714,316.712c-0.022,0.298,1.752,1.233,1.583,1.638c-2.343,5.477-11.071,8.23-13.806,8.521l0.772-7.436
				L568.714,316.712z"/>
		</g>
	</g>
	<g>
		<g>
			<path style="fill:#F48462;" d="M556.393,292.147c-1.494,1.216-2.539,2.89-3.157,4.714c-1.422,4.2-4.292,14.005-2.412,20.017
				c2.443,7.813,9.487,6.35,13.676,4.694c4.188-1.656,6.068-4.353,6.068-4.353s4.006,1.237,6.529-2.578
				c2.523-3.815,0.749-8.049-1.545-8.96c-2.294-0.911-4.927,0.827-4.927,0.827l1.971-4.143
				C572.594,302.367,564.664,285.414,556.393,292.147z"/>
		</g>
	</g>
	<g>
		<path d="M571.202,311.846c-0.152,0-0.303-0.069-0.401-0.201c-0.165-0.222-0.119-0.535,0.102-0.7l3.975-2.962
			c0.22-0.163,0.534-0.12,0.7,0.103c0.165,0.222,0.119,0.535-0.102,0.7l-3.975,2.962
			C571.411,311.814,571.307,311.846,571.202,311.846z"/>
	</g>
	<g>
		<path d="M575.67,311.709c-0.038,0-0.077-0.004-0.116-0.014l-3.242-0.776c-0.268-0.064-0.435-0.334-0.37-0.603
			c0.064-0.268,0.33-0.439,0.603-0.37l3.242,0.776c0.269,0.064,0.435,0.334,0.37,0.603
			C576.102,311.555,575.897,311.709,575.67,311.709z"/>
	</g>
	<g>
		<path d="M553.19,304.872c-0.04,0-0.082-0.005-0.123-0.016c-0.268-0.068-0.43-0.34-0.361-0.607l0.639-2.507
			c0.068-0.267,0.336-0.432,0.607-0.361c0.268,0.068,0.43,0.34,0.361,0.607l-0.639,2.507
			C553.616,304.722,553.413,304.872,553.19,304.872z"/>
	</g>
	<g>
		<path d="M560.083,305.238c-0.04,0-0.082-0.005-0.123-0.016c-0.268-0.068-0.43-0.34-0.361-0.607l0.639-2.508
			c0.068-0.268,0.336-0.434,0.607-0.361c0.268,0.068,0.43,0.34,0.361,0.607l-0.639,2.508
			C560.51,305.088,560.307,305.238,560.083,305.238z"/>
	</g>
	<g>
		<path d="M552.795,299.399c-0.252,0-0.469-0.189-0.496-0.446c-0.029-0.274,0.169-0.521,0.443-0.551l2.064-0.224
			c0.271-0.029,0.521,0.168,0.551,0.443c0.029,0.274-0.169,0.521-0.443,0.551l-2.065,0.224
			C552.831,299.398,552.814,299.399,552.795,299.399z"/>
	</g>
	<g>
		<path d="M562.16,301.058c-0.065,0-0.13-0.013-0.193-0.039l-2.808-1.175c-0.254-0.107-0.374-0.4-0.268-0.654
			c0.106-0.255,0.399-0.374,0.654-0.268l2.808,1.175c0.254,0.106,0.374,0.399,0.268,0.654
			C562.541,300.942,562.356,301.058,562.16,301.058z"/>
	</g>
	<g>
		<path d="M570.623,306.509c0,0-1.128,4.529-1.996,3.977c-0.868-0.552-1.681-7.082-1.033-10.005c0.647-2.923,1.12-4.392,1.12-4.392
			s-11.887-1.057-15.02-3.882c-3.133-2.825,3.486-4.647,10.255-3.365s9.439,3.826,9.439,3.826s4.242-0.632,5.827,1.955
			c1.585,2.587-2.023,12.419-2.023,12.419S576.122,304.574,570.623,306.509z"/>
	</g>
	<g>
		<path d="M547.953,311.187c0,0,3.322-3.678,5.012-3.126c1.691,0.552,2.305,3.024,2.305,3.024s2.006-2.778,4.219-1.996
			c2.213,0.781,6.958,1.071,7.008,1.839c0.05,0.768-1.323,1.042-1.323,1.042S554.005,313.259,547.953,311.187z"/>
	</g>
	<g>
		<path d="M570.623,306.509c0,0-0.199,7.344-0.057,10.711c0.142,3.366-9.216,8.618-15.681,5.718
			c-6.465-2.9-4.692-11.371-4.692-11.371l5.761,0.532c0,0,1.328-0.753,2.838-1.063c1.509-0.31,3.521,0.512,3.521,0.512
			L570.623,306.509z"/>
	</g>
	<g>
		<path d="M556.858,313.775c-0.23,0-0.429-0.174-0.453-0.409c-0.026-0.251,0.155-0.476,0.406-0.503
			c0.02-0.002,1.975-0.229,2.688-1.654c0.113-0.228,0.391-0.315,0.613-0.205c0.227,0.113,0.317,0.388,0.205,0.613
			c-0.94,1.88-3.311,2.146-3.411,2.156C556.891,313.774,556.875,313.775,556.858,313.775z"/>
	</g>
	<g>
		<path d="M555.065,310.314c-0.183,0-0.359-0.102-0.447-0.276c-1.618-3.232,0.708-6.631,0.808-6.774
			c0.158-0.227,0.468-0.283,0.695-0.124c0.227,0.157,0.282,0.469,0.125,0.695c-0.021,0.03-2.083,3.06-0.733,5.756
			c0.123,0.247,0.023,0.547-0.224,0.671C555.217,310.297,555.14,310.314,555.065,310.314z"/>
	</g>
	<g>
		<path style="fill:#F7B369;" d="M559.578,331.461c-3.19,0-5.657-0.621-5.876-0.678c-0.267-0.07-0.427-0.343-0.357-0.61
			c0.068-0.266,0.341-0.429,0.609-0.358c0.112,0.029,11.289,2.83,16.866-3.777c0.179-0.211,0.494-0.236,0.704-0.06
			c0.211,0.178,0.238,0.493,0.06,0.704C568.314,330.559,563.421,331.461,559.578,331.461z"/>
	</g>
	<g>
		<path style="fill:#F27E64;" d="M553.888,313.254c0,0,1.232,1.423,2.365,1.423s2.128-1.931,2.128-1.931L553.888,313.254z"/>
	</g>
</g>
</svg>
